<svg width="1363" height="163" viewBox="0 0 1363 163" fill="none" xmlns="http://www.w3.org/2000/svg">
<path d="M0 15C0 6.71573 6.71573 0 15 0H37V163H15C6.71573 163 0 156.284 0 148V15Z" fill="#424242"/>
<rect width="1097" height="163" transform="translate(37)" fill="#F0F0F0"/>
<path d="M102.152 43.9375V61H98.6484V43.9375H102.152ZM107.402 43.9375V46.6914H93.4805V43.9375H107.402ZM111.75 51.0859V61H108.375V48.3203H111.551L111.75 51.0859ZM115.57 48.2383L115.512 51.3672C115.348 51.3438 115.148 51.3242 114.914 51.3086C114.688 51.2852 114.48 51.2734 114.293 51.2734C113.816 51.2734 113.402 51.3359 113.051 51.4609C112.707 51.5781 112.418 51.7539 112.184 51.9883C111.957 52.2227 111.785 52.5078 111.668 52.8438C111.559 53.1797 111.496 53.5625 111.48 53.9922L110.801 53.7812C110.801 52.9609 110.883 52.207 111.047 51.5195C111.211 50.8242 111.449 50.2188 111.762 49.7031C112.082 49.1875 112.473 48.7891 112.934 48.5078C113.395 48.2266 113.922 48.0859 114.516 48.0859C114.703 48.0859 114.895 48.1016 115.09 48.1328C115.285 48.1562 115.445 48.1914 115.57 48.2383ZM122.766 61.2344C121.781 61.2344 120.898 61.0781 120.117 60.7656C119.336 60.4453 118.672 60.0039 118.125 59.4414C117.586 58.8789 117.172 58.2266 116.883 57.4844C116.594 56.7344 116.449 55.9375 116.449 55.0938V54.625C116.449 53.6641 116.586 52.7852 116.859 51.9883C117.133 51.1914 117.523 50.5 118.031 49.9141C118.547 49.3281 119.172 48.8789 119.906 48.5664C120.641 48.2461 121.469 48.0859 122.391 48.0859C123.289 48.0859 124.086 48.2344 124.781 48.5312C125.477 48.8281 126.059 49.25 126.527 49.7969C127.004 50.3438 127.363 51 127.605 51.7656C127.848 52.5234 127.969 53.3672 127.969 54.2969V55.7031H117.891V53.4531H124.652V53.1953C124.652 52.7266 124.566 52.3086 124.395 51.9414C124.23 51.5664 123.98 51.2695 123.645 51.0508C123.309 50.832 122.879 50.7227 122.355 50.7227C121.91 50.7227 121.527 50.8203 121.207 51.0156C120.887 51.2109 120.625 51.4844 120.422 51.8359C120.227 52.1875 120.078 52.6016 119.977 53.0781C119.883 53.5469 119.836 54.0625 119.836 54.625V55.0938C119.836 55.6016 119.906 56.0703 120.047 56.5C120.195 56.9297 120.402 57.3008 120.668 57.6133C120.941 57.9258 121.27 58.168 121.652 58.3398C122.043 58.5117 122.484 58.5977 122.977 58.5977C123.586 58.5977 124.152 58.4805 124.676 58.2461C125.207 58.0039 125.664 57.6406 126.047 57.1562L127.688 58.9375C127.422 59.3203 127.059 59.6875 126.598 60.0391C126.145 60.3906 125.598 60.6797 124.957 60.9062C124.316 61.125 123.586 61.2344 122.766 61.2344ZM133.266 42.9883V61H129.891V42.9883H133.266ZM141.258 48.3203L135.75 54.6016L132.797 57.5898L131.566 55.1523L133.91 52.1758L137.203 48.3203H141.258ZM137.754 61L134.004 55.1406L136.336 53.1016L141.645 61H137.754ZM146.086 42.9883V61H142.711V42.9883H146.086ZM154.078 48.3203L148.57 54.6016L145.617 57.5898L144.387 55.1523L146.73 52.1758L150.023 48.3203H154.078ZM150.574 61L146.824 55.1406L149.156 53.1016L154.465 61H150.574ZM161.133 61.2344C160.148 61.2344 159.266 61.0781 158.484 60.7656C157.703 60.4453 157.039 60.0039 156.492 59.4414C155.953 58.8789 155.539 58.2266 155.25 57.4844C154.961 56.7344 154.816 55.9375 154.816 55.0938V54.625C154.816 53.6641 154.953 52.7852 155.227 51.9883C155.5 51.1914 155.891 50.5 156.398 49.9141C156.914 49.3281 157.539 48.8789 158.273 48.5664C159.008 48.2461 159.836 48.0859 160.758 48.0859C161.656 48.0859 162.453 48.2344 163.148 48.5312C163.844 48.8281 164.426 49.25 164.895 49.7969C165.371 50.3438 165.73 51 165.973 51.7656C166.215 52.5234 166.336 53.3672 166.336 54.2969V55.7031H156.258V53.4531H163.02V53.1953C163.02 52.7266 162.934 52.3086 162.762 51.9414C162.598 51.5664 162.348 51.2695 162.012 51.0508C161.676 50.832 161.246 50.7227 160.723 50.7227C160.277 50.7227 159.895 50.8203 159.574 51.0156C159.254 51.2109 158.992 51.4844 158.789 51.8359C158.594 52.1875 158.445 52.6016 158.344 53.0781C158.25 53.5469 158.203 54.0625 158.203 54.625V55.0938C158.203 55.6016 158.273 56.0703 158.414 56.5C158.562 56.9297 158.77 57.3008 159.035 57.6133C159.309 57.9258 159.637 58.168 160.02 58.3398C160.41 58.5117 160.852 58.5977 161.344 58.5977C161.953 58.5977 162.52 58.4805 163.043 58.2461C163.574 58.0039 164.031 57.6406 164.414 57.1562L166.055 58.9375C165.789 59.3203 165.426 59.6875 164.965 60.0391C164.512 60.3906 163.965 60.6797 163.324 60.9062C162.684 61.125 161.953 61.2344 161.133 61.2344ZM171.633 51.0859V61H168.258V48.3203H171.434L171.633 51.0859ZM175.453 48.2383L175.395 51.3672C175.23 51.3438 175.031 51.3242 174.797 51.3086C174.57 51.2852 174.363 51.2734 174.176 51.2734C173.699 51.2734 173.285 51.3359 172.934 51.4609C172.59 51.5781 172.301 51.7539 172.066 51.9883C171.84 52.2227 171.668 52.5078 171.551 52.8438C171.441 53.1797 171.379 53.5625 171.363 53.9922L170.684 53.7812C170.684 52.9609 170.766 52.207 170.93 51.5195C171.094 50.8242 171.332 50.2188 171.645 49.7031C171.965 49.1875 172.355 48.7891 172.816 48.5078C173.277 48.2266 173.805 48.0859 174.398 48.0859C174.586 48.0859 174.777 48.1016 174.973 48.1328C175.168 48.1562 175.328 48.1914 175.453 48.2383ZM190.23 43.9375V61H186.727V43.9375H190.23ZM195.48 43.9375V46.6914H181.559V43.9375H195.48ZM202.336 58.1406V52.4922C202.336 52.0859 202.27 51.7383 202.137 51.4492C202.004 51.1523 201.797 50.9219 201.516 50.7578C201.242 50.5938 200.887 50.5117 200.449 50.5117C200.074 50.5117 199.75 50.5781 199.477 50.7109C199.203 50.8359 198.992 51.0195 198.844 51.2617C198.695 51.4961 198.621 51.7734 198.621 52.0938H195.246C195.246 51.5547 195.371 51.043 195.621 50.5586C195.871 50.0742 196.234 49.6484 196.711 49.2812C197.188 48.9062 197.754 48.6133 198.41 48.4023C199.074 48.1914 199.816 48.0859 200.637 48.0859C201.621 48.0859 202.496 48.25 203.262 48.5781C204.027 48.9062 204.629 49.3984 205.066 50.0547C205.512 50.7109 205.734 51.5312 205.734 52.5156V57.9414C205.734 58.6367 205.777 59.207 205.863 59.6523C205.949 60.0898 206.074 60.4727 206.238 60.8008V61H202.828C202.664 60.6562 202.539 60.2266 202.453 59.7109C202.375 59.1875 202.336 58.6641 202.336 58.1406ZM202.781 53.2773L202.805 55.1875H200.918C200.473 55.1875 200.086 55.2383 199.758 55.3398C199.43 55.4414 199.16 55.5859 198.949 55.7734C198.738 55.9531 198.582 56.1641 198.48 56.4062C198.387 56.6484 198.34 56.9141 198.34 57.2031C198.34 57.4922 198.406 57.7539 198.539 57.9883C198.672 58.2148 198.863 58.3945 199.113 58.5273C199.363 58.6523 199.656 58.7148 199.992 58.7148C200.5 58.7148 200.941 58.6133 201.316 58.4102C201.691 58.207 201.98 57.957 202.184 57.6602C202.395 57.3633 202.504 57.082 202.512 56.8164L203.402 58.2461C203.277 58.5664 203.105 58.8984 202.887 59.2422C202.676 59.5859 202.406 59.9102 202.078 60.2148C201.75 60.5117 201.355 60.7578 200.895 60.9531C200.434 61.1406 199.887 61.2344 199.254 61.2344C198.449 61.2344 197.719 61.0742 197.062 60.7539C196.414 60.4258 195.898 59.9766 195.516 59.4062C195.141 58.8281 194.953 58.1719 194.953 57.4375C194.953 56.7734 195.078 56.1836 195.328 55.668C195.578 55.1523 195.945 54.7188 196.43 54.3672C196.922 54.0078 197.535 53.7383 198.27 53.5586C199.004 53.3711 199.855 53.2773 200.824 53.2773H202.781ZM211.898 43V61H208.512V43H211.898ZM220.523 61.2344C219.539 61.2344 218.656 61.0781 217.875 60.7656C217.094 60.4453 216.43 60.0039 215.883 59.4414C215.344 58.8789 214.93 58.2266 214.641 57.4844C214.352 56.7344 214.207 55.9375 214.207 55.0938V54.625C214.207 53.6641 214.344 52.7852 214.617 51.9883C214.891 51.1914 215.281 50.5 215.789 49.9141C216.305 49.3281 216.93 48.8789 217.664 48.5664C218.398 48.2461 219.227 48.0859 220.148 48.0859C221.047 48.0859 221.844 48.2344 222.539 48.5312C223.234 48.8281 223.816 49.25 224.285 49.7969C224.762 50.3438 225.121 51 225.363 51.7656C225.605 52.5234 225.727 53.3672 225.727 54.2969V55.7031H215.648V53.4531H222.41V53.1953C222.41 52.7266 222.324 52.3086 222.152 51.9414C221.988 51.5664 221.738 51.2695 221.402 51.0508C221.066 50.832 220.637 50.7227 220.113 50.7227C219.668 50.7227 219.285 50.8203 218.965 51.0156C218.645 51.2109 218.383 51.4844 218.18 51.8359C217.984 52.1875 217.836 52.6016 217.734 53.0781C217.641 53.5469 217.594 54.0625 217.594 54.625V55.0938C217.594 55.6016 217.664 56.0703 217.805 56.5C217.953 56.9297 218.16 57.3008 218.426 57.6133C218.699 57.9258 219.027 58.168 219.41 58.3398C219.801 58.5117 220.242 58.5977 220.734 58.5977C221.344 58.5977 221.91 58.4805 222.434 58.2461C222.965 58.0039 223.422 57.6406 223.805 57.1562L225.445 58.9375C225.18 59.3203 224.816 59.6875 224.355 60.0391C223.902 60.3906 223.355 60.6797 222.715 60.9062C222.074 61.125 221.344 61.2344 220.523 61.2344ZM234.504 57.4961C234.504 57.2539 234.434 57.0352 234.293 56.8398C234.152 56.6445 233.891 56.4648 233.508 56.3008C233.133 56.1289 232.59 55.9727 231.879 55.832C231.238 55.6914 230.641 55.5156 230.086 55.3047C229.539 55.0859 229.062 54.8242 228.656 54.5195C228.258 54.2148 227.945 53.8555 227.719 53.4414C227.492 53.0195 227.379 52.5391 227.379 52C227.379 51.4688 227.492 50.9688 227.719 50.5C227.953 50.0312 228.285 49.6172 228.715 49.2578C229.152 48.8906 229.684 48.6055 230.309 48.4023C230.941 48.1914 231.652 48.0859 232.441 48.0859C233.543 48.0859 234.488 48.2617 235.277 48.6133C236.074 48.9648 236.684 49.4492 237.105 50.0664C237.535 50.6758 237.75 51.3711 237.75 52.1523H234.375C234.375 51.8242 234.305 51.5312 234.164 51.2734C234.031 51.0078 233.82 50.8008 233.531 50.6523C233.25 50.4961 232.883 50.418 232.43 50.418C232.055 50.418 231.73 50.4844 231.457 50.6172C231.184 50.7422 230.973 50.9141 230.824 51.1328C230.684 51.3438 230.613 51.5781 230.613 51.8359C230.613 52.0312 230.652 52.207 230.73 52.3633C230.816 52.5117 230.953 52.6484 231.141 52.7734C231.328 52.8984 231.57 53.0156 231.867 53.125C232.172 53.2266 232.547 53.3203 232.992 53.4062C233.906 53.5938 234.723 53.8398 235.441 54.1445C236.16 54.4414 236.73 54.8477 237.152 55.3633C237.574 55.8711 237.785 56.5391 237.785 57.3672C237.785 57.9297 237.66 58.4453 237.41 58.9141C237.16 59.3828 236.801 59.793 236.332 60.1445C235.863 60.4883 235.301 60.7578 234.645 60.9531C233.996 61.1406 233.266 61.2344 232.453 61.2344C231.273 61.2344 230.273 61.0234 229.453 60.6016C228.641 60.1797 228.023 59.6445 227.602 58.9961C227.188 58.3398 226.98 57.668 226.98 56.9805H230.18C230.195 57.4414 230.312 57.8125 230.531 58.0938C230.758 58.375 231.043 58.5781 231.387 58.7031C231.738 58.8281 232.117 58.8906 232.523 58.8906C232.961 58.8906 233.324 58.832 233.613 58.7148C233.902 58.5898 234.121 58.4258 234.27 58.2227C234.426 58.0117 234.504 57.7695 234.504 57.4961Z" fill="#888888"/>
<path d="M110.062 92.0469L101.742 119H92.9062L105.445 84.875H111.047L110.062 92.0469ZM116.953 119L108.609 92.0469L107.531 84.875H113.203L125.812 119H116.953ZM116.625 106.273V112.625H99.1172V106.273H116.625ZM135.258 115.906L142.055 84.875H146.109L148.312 87.5234L141.07 119H136.594L135.258 115.906ZM133.453 84.875L139.195 116.141L137.719 119H132.539L125.297 84.875H133.453ZM152.039 115.977L157.734 84.875H165.867L158.625 119H153.469L152.039 115.977ZM149.039 84.875L156 116.094L154.594 119H150.117L142.711 87.4766L145.008 84.875H149.039ZM186.68 109.93C186.68 109.398 186.602 108.922 186.445 108.5C186.289 108.062 186 107.656 185.578 107.281C185.156 106.906 184.547 106.531 183.75 106.156C182.969 105.766 181.938 105.359 180.656 104.938C179.156 104.438 177.711 103.875 176.32 103.25C174.93 102.609 173.688 101.867 172.594 101.023C171.5 100.164 170.633 99.1641 169.992 98.0234C169.352 96.8672 169.031 95.5234 169.031 93.9922C169.031 92.5234 169.359 91.2031 170.016 90.0312C170.672 88.8438 171.586 87.8359 172.758 87.0078C173.945 86.1641 175.336 85.5234 176.93 85.0859C178.523 84.6328 180.266 84.4062 182.156 84.4062C184.656 84.4062 186.859 84.8438 188.766 85.7188C190.688 86.5781 192.188 87.8047 193.266 89.3984C194.359 90.9766 194.906 92.8438 194.906 95H186.727C186.727 94.1406 186.547 93.3828 186.188 92.7266C185.844 92.0703 185.32 91.5547 184.617 91.1797C183.914 90.8047 183.031 90.6172 181.969 90.6172C180.938 90.6172 180.07 90.7734 179.367 91.0859C178.664 91.3984 178.133 91.8203 177.773 92.3516C177.414 92.8672 177.234 93.4375 177.234 94.0625C177.234 94.5781 177.375 95.0469 177.656 95.4688C177.953 95.875 178.367 96.2578 178.898 96.6172C179.445 96.9766 180.102 97.3203 180.867 97.6484C181.648 97.9766 182.523 98.2969 183.492 98.6094C185.305 99.1875 186.914 99.8359 188.32 100.555C189.742 101.258 190.938 102.062 191.906 102.969C192.891 103.859 193.633 104.875 194.133 106.016C194.648 107.156 194.906 108.445 194.906 109.883C194.906 111.414 194.609 112.773 194.016 113.961C193.422 115.148 192.57 116.156 191.461 116.984C190.352 117.797 189.023 118.414 187.477 118.836C185.93 119.258 184.203 119.469 182.297 119.469C180.547 119.469 178.82 119.25 177.117 118.812C175.43 118.359 173.898 117.672 172.523 116.75C171.148 115.812 170.047 114.617 169.219 113.164C168.406 111.695 168 109.953 168 107.938H176.25C176.25 108.938 176.383 109.781 176.648 110.469C176.914 111.156 177.305 111.711 177.82 112.133C178.336 112.539 178.969 112.836 179.719 113.023C180.469 113.195 181.328 113.281 182.297 113.281C183.344 113.281 184.188 113.133 184.828 112.836C185.469 112.523 185.938 112.117 186.234 111.617C186.531 111.102 186.68 110.539 186.68 109.93ZM222.188 119H214.617L214.664 112.672H222.188C223.75 112.672 225.07 112.297 226.148 111.547C227.242 110.797 228.07 109.68 228.633 108.195C229.211 106.695 229.5 104.852 229.5 102.664V101.188C229.5 99.5469 229.336 98.1094 229.008 96.875C228.695 95.625 228.227 94.5859 227.602 93.7578C226.977 92.9141 226.195 92.2812 225.258 91.8594C224.336 91.4375 223.273 91.2266 222.07 91.2266H214.477V84.875H222.07C224.383 84.875 226.5 85.2734 228.422 86.0703C230.359 86.8516 232.031 87.9766 233.438 89.4453C234.859 90.8984 235.953 92.625 236.719 94.625C237.5 96.6094 237.891 98.8125 237.891 101.234V102.664C237.891 105.07 237.5 107.273 236.719 109.273C235.953 111.273 234.867 113 233.461 114.453C232.055 115.906 230.391 117.031 228.469 117.828C226.562 118.609 224.469 119 222.188 119ZM219.328 84.875V119H211.102V84.875H219.328ZM254.086 119.469C252.023 119.469 250.18 119.148 248.555 118.508C246.93 117.852 245.555 116.953 244.43 115.812C243.32 114.672 242.469 113.359 241.875 111.875C241.297 110.391 241.008 108.82 241.008 107.164V106.273C241.008 104.414 241.266 102.695 241.781 101.117C242.297 99.5234 243.062 98.1328 244.078 96.9453C245.094 95.7578 246.367 94.8359 247.898 94.1797C249.43 93.5078 251.211 93.1719 253.242 93.1719C255.039 93.1719 256.648 93.4609 258.07 94.0391C259.492 94.6172 260.695 95.4453 261.68 96.5234C262.68 97.6016 263.438 98.9062 263.953 100.438C264.484 101.969 264.75 103.688 264.75 105.594V108.805H244.031V103.859H257.039V103.25C257.055 102.406 256.906 101.688 256.594 101.094C256.297 100.5 255.859 100.047 255.281 99.7344C254.703 99.4219 254 99.2656 253.172 99.2656C252.312 99.2656 251.602 99.4531 251.039 99.8281C250.492 100.203 250.062 100.719 249.75 101.375C249.453 102.016 249.242 102.758 249.117 103.602C248.992 104.445 248.93 105.336 248.93 106.273V107.164C248.93 108.102 249.055 108.953 249.305 109.719C249.57 110.484 249.945 111.141 250.43 111.688C250.93 112.219 251.523 112.633 252.211 112.93C252.914 113.227 253.711 113.375 254.602 113.375C255.68 113.375 256.742 113.172 257.789 112.766C258.836 112.359 259.734 111.688 260.484 110.75L264.07 115.016C263.555 115.75 262.82 116.461 261.867 117.148C260.93 117.836 259.805 118.398 258.492 118.836C257.18 119.258 255.711 119.469 254.086 119.469ZM275.93 98.5156V128.75H268.031V93.6406H275.391L275.93 98.5156ZM291.492 106.016V106.508C291.492 108.352 291.281 110.062 290.859 111.641C290.438 113.219 289.812 114.594 288.984 115.766C288.156 116.938 287.125 117.852 285.891 118.508C284.672 119.148 283.258 119.469 281.648 119.469C280.133 119.469 278.828 119.133 277.734 118.461C276.641 117.789 275.727 116.859 274.992 115.672C274.258 114.484 273.664 113.125 273.211 111.594C272.758 110.062 272.398 108.445 272.133 106.742V106.109C272.398 104.281 272.758 102.586 273.211 101.023C273.664 99.4453 274.258 98.0703 274.992 96.8984C275.727 95.7266 276.633 94.8125 277.711 94.1562C278.805 93.5 280.109 93.1719 281.625 93.1719C283.234 93.1719 284.648 93.4766 285.867 94.0859C287.102 94.6953 288.133 95.5703 288.961 96.7109C289.805 97.8359 290.438 99.1875 290.859 100.766C291.281 102.344 291.492 104.094 291.492 106.016ZM283.594 106.508V106.016C283.594 105.031 283.523 104.133 283.383 103.32C283.242 102.492 283.016 101.773 282.703 101.164C282.406 100.555 282.008 100.086 281.508 99.7578C281.008 99.4297 280.391 99.2656 279.656 99.2656C278.812 99.2656 278.102 99.3984 277.523 99.6641C276.961 99.9141 276.508 100.305 276.164 100.836C275.836 101.352 275.602 102 275.461 102.781C275.336 103.547 275.281 104.445 275.297 105.477V107.398C275.266 108.586 275.383 109.633 275.648 110.539C275.914 111.43 276.375 112.125 277.031 112.625C277.688 113.125 278.578 113.375 279.703 113.375C280.453 113.375 281.078 113.203 281.578 112.859C282.078 112.5 282.477 112.008 282.773 111.383C283.07 110.742 283.281 110.008 283.406 109.18C283.531 108.352 283.594 107.461 283.594 106.508ZM303.352 83V119H295.43V83H303.352ZM307.242 106.578V106.086C307.242 104.227 307.508 102.516 308.039 100.953C308.57 99.375 309.352 98.0078 310.383 96.8516C311.414 95.6953 312.688 94.7969 314.203 94.1562C315.719 93.5 317.469 93.1719 319.453 93.1719C321.453 93.1719 323.211 93.5 324.727 94.1562C326.258 94.7969 327.539 95.6953 328.57 96.8516C329.602 98.0078 330.383 99.375 330.914 100.953C331.445 102.516 331.711 104.227 331.711 106.086V106.578C331.711 108.422 331.445 110.133 330.914 111.711C330.383 113.273 329.602 114.641 328.57 115.812C327.539 116.969 326.266 117.867 324.75 118.508C323.234 119.148 321.484 119.469 319.5 119.469C317.516 119.469 315.758 119.148 314.227 118.508C312.695 117.867 311.414 116.969 310.383 115.812C309.352 114.641 308.57 113.273 308.039 111.711C307.508 110.133 307.242 108.422 307.242 106.578ZM315.141 106.086V106.578C315.141 107.531 315.211 108.422 315.352 109.25C315.492 110.078 315.727 110.805 316.055 111.43C316.383 112.039 316.828 112.516 317.391 112.859C317.953 113.203 318.656 113.375 319.5 113.375C320.328 113.375 321.016 113.203 321.562 112.859C322.125 112.516 322.57 112.039 322.898 111.43C323.227 110.805 323.461 110.078 323.602 109.25C323.742 108.422 323.812 107.531 323.812 106.578V106.086C323.812 105.164 323.742 104.297 323.602 103.484C323.461 102.656 323.227 101.93 322.898 101.305C322.57 100.664 322.125 100.164 321.562 99.8047C321 99.4453 320.297 99.2656 319.453 99.2656C318.625 99.2656 317.93 99.4453 317.367 99.8047C316.82 100.164 316.383 100.664 316.055 101.305C315.727 101.93 315.492 102.656 315.352 103.484C315.211 104.297 315.141 105.164 315.141 106.086ZM342.633 116.023L349.195 93.6406H357.68L347.484 122.773C347.266 123.414 346.977 124.102 346.617 124.836C346.258 125.586 345.766 126.297 345.141 126.969C344.516 127.641 343.711 128.188 342.727 128.609C341.758 129.031 340.555 129.242 339.117 129.242C338.352 129.242 337.789 129.203 337.43 129.125C337.086 129.062 336.555 128.945 335.836 128.773V123.125C336.039 123.125 336.211 123.125 336.352 123.125C336.508 123.125 336.68 123.125 336.867 123.125C337.711 123.125 338.383 123.039 338.883 122.867C339.398 122.695 339.789 122.445 340.055 122.117C340.336 121.789 340.555 121.391 340.711 120.922L342.633 116.023ZM340.969 93.6406L345.961 111.383L346.828 119.75H341.531L332.508 93.6406H340.969ZM367.711 99.0078V119H359.812V93.6406H367.219L367.711 99.0078ZM366.75 105.453L364.945 105.5C364.945 103.719 365.156 102.078 365.578 100.578C366 99.0781 366.625 97.7734 367.453 96.6641C368.281 95.5547 369.297 94.6953 370.5 94.0859C371.719 93.4766 373.125 93.1719 374.719 93.1719C375.828 93.1719 376.836 93.3438 377.742 93.6875C378.648 94.0156 379.43 94.5391 380.086 95.2578C380.742 95.9609 381.242 96.8828 381.586 98.0234C381.945 99.1484 382.125 100.5 382.125 102.078V119H374.227V103.086C374.227 102.008 374.102 101.195 373.852 100.648C373.617 100.102 373.273 99.7344 372.82 99.5469C372.367 99.3594 371.812 99.2656 371.156 99.2656C370.469 99.2656 369.852 99.4219 369.305 99.7344C368.758 100.047 368.289 100.484 367.898 101.047C367.523 101.594 367.234 102.242 367.031 102.992C366.844 103.742 366.75 104.562 366.75 105.453ZM381.234 105.453L379.031 105.5C379.031 103.719 379.227 102.078 379.617 100.578C380.023 99.0781 380.625 97.7734 381.422 96.6641C382.234 95.5547 383.242 94.6953 384.445 94.0859C385.648 93.4766 387.047 93.1719 388.641 93.1719C389.797 93.1719 390.859 93.3438 391.828 93.6875C392.797 94.0312 393.633 94.5859 394.336 95.3516C395.039 96.1172 395.586 97.1328 395.977 98.3984C396.367 99.6484 396.562 101.195 396.562 103.039V119H388.641V103.039C388.641 101.992 388.516 101.203 388.266 100.672C388.031 100.125 387.688 99.7578 387.234 99.5703C386.781 99.3672 386.242 99.2656 385.617 99.2656C384.867 99.2656 384.219 99.4219 383.672 99.7344C383.125 100.047 382.664 100.484 382.289 101.047C381.93 101.594 381.664 102.242 381.492 102.992C381.32 103.742 381.234 104.562 381.234 105.453ZM413.367 119.469C411.305 119.469 409.461 119.148 407.836 118.508C406.211 117.852 404.836 116.953 403.711 115.812C402.602 114.672 401.75 113.359 401.156 111.875C400.578 110.391 400.289 108.82 400.289 107.164V106.273C400.289 104.414 400.547 102.695 401.062 101.117C401.578 99.5234 402.344 98.1328 403.359 96.9453C404.375 95.7578 405.648 94.8359 407.18 94.1797C408.711 93.5078 410.492 93.1719 412.523 93.1719C414.32 93.1719 415.93 93.4609 417.352 94.0391C418.773 94.6172 419.977 95.4453 420.961 96.5234C421.961 97.6016 422.719 98.9062 423.234 100.438C423.766 101.969 424.031 103.688 424.031 105.594V108.805H403.312V103.859H416.32V103.25C416.336 102.406 416.188 101.688 415.875 101.094C415.578 100.5 415.141 100.047 414.562 99.7344C413.984 99.4219 413.281 99.2656 412.453 99.2656C411.594 99.2656 410.883 99.4531 410.32 99.8281C409.773 100.203 409.344 100.719 409.031 101.375C408.734 102.016 408.523 102.758 408.398 103.602C408.273 104.445 408.211 105.336 408.211 106.273V107.164C408.211 108.102 408.336 108.953 408.586 109.719C408.852 110.484 409.227 111.141 409.711 111.688C410.211 112.219 410.805 112.633 411.492 112.93C412.195 113.227 412.992 113.375 413.883 113.375C414.961 113.375 416.023 113.172 417.07 112.766C418.117 112.359 419.016 111.688 419.766 110.75L423.352 115.016C422.836 115.75 422.102 116.461 421.148 117.148C420.211 117.836 419.086 118.398 417.773 118.836C416.461 119.258 414.992 119.469 413.367 119.469ZM435 99.0547V119H427.102V93.6406H434.508L435 99.0547ZM434.062 105.453L432.211 105.5C432.211 103.562 432.445 101.836 432.914 100.32C433.383 98.7891 434.047 97.4922 434.906 96.4297C435.766 95.3672 436.789 94.5625 437.977 94.0156C439.18 93.4531 440.516 93.1719 441.984 93.1719C443.156 93.1719 444.227 93.3438 445.195 93.6875C446.18 94.0312 447.023 94.5859 447.727 95.3516C448.445 96.1172 448.992 97.1328 449.367 98.3984C449.758 99.6484 449.953 101.195 449.953 103.039V119H442.008V103.016C442.008 102 441.867 101.227 441.586 100.695C441.305 100.148 440.898 99.7734 440.367 99.5703C439.836 99.3672 439.188 99.2656 438.422 99.2656C437.609 99.2656 436.922 99.4219 436.359 99.7344C435.797 100.047 435.344 100.484 435 101.047C434.672 101.594 434.43 102.242 434.273 102.992C434.133 103.742 434.062 104.562 434.062 105.453ZM467.695 93.6406V99.125H452.414V93.6406H467.695ZM455.625 87.3359H463.523V110.727C463.523 111.398 463.602 111.922 463.758 112.297C463.914 112.656 464.18 112.914 464.555 113.07C464.945 113.211 465.461 113.281 466.102 113.281C466.555 113.281 466.93 113.273 467.227 113.258C467.523 113.227 467.805 113.188 468.07 113.141V118.789C467.398 119.008 466.695 119.172 465.961 119.281C465.227 119.406 464.445 119.469 463.617 119.469C461.93 119.469 460.484 119.203 459.281 118.672C458.094 118.141 457.188 117.305 456.562 116.164C455.938 115.023 455.625 113.539 455.625 111.711V87.3359Z" fill="black"/>
<path d="M1134 0H1348C1356.28 0 1363 6.71573 1363 15V148C1363 156.284 1356.28 163 1348 163H1134V0Z" fill="#E87A00"/>
<path d="M1212.5 117.5L1212.5 45.5L1284.5 45.5L1284.5 117.5L1212.5 117.5Z" fill="white" fill-opacity="0.01"/>
<path d="M1221.5 81.5125L1221.5 108.5L1275.5 108.5L1275.5 81.5" stroke="white" stroke-width="7.24" stroke-linecap="round" stroke-linejoin="round"/>
<path d="M1262 68L1248.5 54.5L1235 68" stroke="white" stroke-width="7.24" stroke-linecap="round" stroke-linejoin="round"/>
<path d="M1248.49 93.5L1248.49 54.5" stroke="white" stroke-width="7.24" stroke-linecap="round" stroke-linejoin="round"/>
</svg>
