<svg width="1363" height="163" viewBox="0 0 1363 163" fill="none" xmlns="http://www.w3.org/2000/svg">
<path d="M0 15C0 6.71573 6.71573 0 15 0H37V163H15C6.71573 163 0 156.284 0 148V15Z" fill="#424242"/>
<rect width="1097" height="163" transform="translate(37)" fill="#F0F0F0"/>
<path d="M102.152 43.9375V61H98.6484V43.9375H102.152ZM107.402 43.9375V46.6914H93.4805V43.9375H107.402ZM111.75 51.0859V61H108.375V48.3203H111.551L111.75 51.0859ZM115.57 48.2383L115.512 51.3672C115.348 51.3438 115.148 51.3242 114.914 51.3086C114.688 51.2852 114.48 51.2734 114.293 51.2734C113.816 51.2734 113.402 51.3359 113.051 51.4609C112.707 51.5781 112.418 51.7539 112.184 51.9883C111.957 52.2227 111.785 52.5078 111.668 52.8438C111.559 53.1797 111.496 53.5625 111.48 53.9922L110.801 53.7812C110.801 52.9609 110.883 52.207 111.047 51.5195C111.211 50.8242 111.449 50.2188 111.762 49.7031C112.082 49.1875 112.473 48.7891 112.934 48.5078C113.395 48.2266 113.922 48.0859 114.516 48.0859C114.703 48.0859 114.895 48.1016 115.09 48.1328C115.285 48.1562 115.445 48.1914 115.57 48.2383ZM122.766 61.2344C121.781 61.2344 120.898 61.0781 120.117 60.7656C119.336 60.4453 118.672 60.0039 118.125 59.4414C117.586 58.8789 117.172 58.2266 116.883 57.4844C116.594 56.7344 116.449 55.9375 116.449 55.0938V54.625C116.449 53.6641 116.586 52.7852 116.859 51.9883C117.133 51.1914 117.523 50.5 118.031 49.9141C118.547 49.3281 119.172 48.8789 119.906 48.5664C120.641 48.2461 121.469 48.0859 122.391 48.0859C123.289 48.0859 124.086 48.2344 124.781 48.5312C125.477 48.8281 126.059 49.25 126.527 49.7969C127.004 50.3438 127.363 51 127.605 51.7656C127.848 52.5234 127.969 53.3672 127.969 54.2969V55.7031H117.891V53.4531H124.652V53.1953C124.652 52.7266 124.566 52.3086 124.395 51.9414C124.23 51.5664 123.98 51.2695 123.645 51.0508C123.309 50.832 122.879 50.7227 122.355 50.7227C121.91 50.7227 121.527 50.8203 121.207 51.0156C120.887 51.2109 120.625 51.4844 120.422 51.8359C120.227 52.1875 120.078 52.6016 119.977 53.0781C119.883 53.5469 119.836 54.0625 119.836 54.625V55.0938C119.836 55.6016 119.906 56.0703 120.047 56.5C120.195 56.9297 120.402 57.3008 120.668 57.6133C120.941 57.9258 121.27 58.168 121.652 58.3398C122.043 58.5117 122.484 58.5977 122.977 58.5977C123.586 58.5977 124.152 58.4805 124.676 58.2461C125.207 58.0039 125.664 57.6406 126.047 57.1562L127.688 58.9375C127.422 59.3203 127.059 59.6875 126.598 60.0391C126.145 60.3906 125.598 60.6797 124.957 60.9062C124.316 61.125 123.586 61.2344 122.766 61.2344ZM133.266 42.9883V61H129.891V42.9883H133.266ZM141.258 48.3203L135.75 54.6016L132.797 57.5898L131.566 55.1523L133.91 52.1758L137.203 48.3203H141.258ZM137.754 61L134.004 55.1406L136.336 53.1016L141.645 61H137.754ZM146.086 42.9883V61H142.711V42.9883H146.086ZM154.078 48.3203L148.57 54.6016L145.617 57.5898L144.387 55.1523L146.73 52.1758L150.023 48.3203H154.078ZM150.574 61L146.824 55.1406L149.156 53.1016L154.465 61H150.574ZM161.133 61.2344C160.148 61.2344 159.266 61.0781 158.484 60.7656C157.703 60.4453 157.039 60.0039 156.492 59.4414C155.953 58.8789 155.539 58.2266 155.25 57.4844C154.961 56.7344 154.816 55.9375 154.816 55.0938V54.625C154.816 53.6641 154.953 52.7852 155.227 51.9883C155.5 51.1914 155.891 50.5 156.398 49.9141C156.914 49.3281 157.539 48.8789 158.273 48.5664C159.008 48.2461 159.836 48.0859 160.758 48.0859C161.656 48.0859 162.453 48.2344 163.148 48.5312C163.844 48.8281 164.426 49.25 164.895 49.7969C165.371 50.3438 165.73 51 165.973 51.7656C166.215 52.5234 166.336 53.3672 166.336 54.2969V55.7031H156.258V53.4531H163.02V53.1953C163.02 52.7266 162.934 52.3086 162.762 51.9414C162.598 51.5664 162.348 51.2695 162.012 51.0508C161.676 50.832 161.246 50.7227 160.723 50.7227C160.277 50.7227 159.895 50.8203 159.574 51.0156C159.254 51.2109 158.992 51.4844 158.789 51.8359C158.594 52.1875 158.445 52.6016 158.344 53.0781C158.25 53.5469 158.203 54.0625 158.203 54.625V55.0938C158.203 55.6016 158.273 56.0703 158.414 56.5C158.562 56.9297 158.77 57.3008 159.035 57.6133C159.309 57.9258 159.637 58.168 160.02 58.3398C160.41 58.5117 160.852 58.5977 161.344 58.5977C161.953 58.5977 162.52 58.4805 163.043 58.2461C163.574 58.0039 164.031 57.6406 164.414 57.1562L166.055 58.9375C165.789 59.3203 165.426 59.6875 164.965 60.0391C164.512 60.3906 163.965 60.6797 163.324 60.9062C162.684 61.125 161.953 61.2344 161.133 61.2344ZM171.633 51.0859V61H168.258V48.3203H171.434L171.633 51.0859ZM175.453 48.2383L175.395 51.3672C175.23 51.3438 175.031 51.3242 174.797 51.3086C174.57 51.2852 174.363 51.2734 174.176 51.2734C173.699 51.2734 173.285 51.3359 172.934 51.4609C172.59 51.5781 172.301 51.7539 172.066 51.9883C171.84 52.2227 171.668 52.5078 171.551 52.8438C171.441 53.1797 171.379 53.5625 171.363 53.9922L170.684 53.7812C170.684 52.9609 170.766 52.207 170.93 51.5195C171.094 50.8242 171.332 50.2188 171.645 49.7031C171.965 49.1875 172.355 48.7891 172.816 48.5078C173.277 48.2266 173.805 48.0859 174.398 48.0859C174.586 48.0859 174.777 48.1016 174.973 48.1328C175.168 48.1562 175.328 48.1914 175.453 48.2383ZM190.23 43.9375V61H186.727V43.9375H190.23ZM195.48 43.9375V46.6914H181.559V43.9375H195.48ZM202.336 58.1406V52.4922C202.336 52.0859 202.27 51.7383 202.137 51.4492C202.004 51.1523 201.797 50.9219 201.516 50.7578C201.242 50.5938 200.887 50.5117 200.449 50.5117C200.074 50.5117 199.75 50.5781 199.477 50.7109C199.203 50.8359 198.992 51.0195 198.844 51.2617C198.695 51.4961 198.621 51.7734 198.621 52.0938H195.246C195.246 51.5547 195.371 51.043 195.621 50.5586C195.871 50.0742 196.234 49.6484 196.711 49.2812C197.188 48.9062 197.754 48.6133 198.41 48.4023C199.074 48.1914 199.816 48.0859 200.637 48.0859C201.621 48.0859 202.496 48.25 203.262 48.5781C204.027 48.9062 204.629 49.3984 205.066 50.0547C205.512 50.7109 205.734 51.5312 205.734 52.5156V57.9414C205.734 58.6367 205.777 59.207 205.863 59.6523C205.949 60.0898 206.074 60.4727 206.238 60.8008V61H202.828C202.664 60.6562 202.539 60.2266 202.453 59.7109C202.375 59.1875 202.336 58.6641 202.336 58.1406ZM202.781 53.2773L202.805 55.1875H200.918C200.473 55.1875 200.086 55.2383 199.758 55.3398C199.43 55.4414 199.16 55.5859 198.949 55.7734C198.738 55.9531 198.582 56.1641 198.48 56.4062C198.387 56.6484 198.34 56.9141 198.34 57.2031C198.34 57.4922 198.406 57.7539 198.539 57.9883C198.672 58.2148 198.863 58.3945 199.113 58.5273C199.363 58.6523 199.656 58.7148 199.992 58.7148C200.5 58.7148 200.941 58.6133 201.316 58.4102C201.691 58.207 201.98 57.957 202.184 57.6602C202.395 57.3633 202.504 57.082 202.512 56.8164L203.402 58.2461C203.277 58.5664 203.105 58.8984 202.887 59.2422C202.676 59.5859 202.406 59.9102 202.078 60.2148C201.75 60.5117 201.355 60.7578 200.895 60.9531C200.434 61.1406 199.887 61.2344 199.254 61.2344C198.449 61.2344 197.719 61.0742 197.062 60.7539C196.414 60.4258 195.898 59.9766 195.516 59.4062C195.141 58.8281 194.953 58.1719 194.953 57.4375C194.953 56.7734 195.078 56.1836 195.328 55.668C195.578 55.1523 195.945 54.7188 196.43 54.3672C196.922 54.0078 197.535 53.7383 198.27 53.5586C199.004 53.3711 199.855 53.2773 200.824 53.2773H202.781ZM211.898 43V61H208.512V43H211.898ZM220.523 61.2344C219.539 61.2344 218.656 61.0781 217.875 60.7656C217.094 60.4453 216.43 60.0039 215.883 59.4414C215.344 58.8789 214.93 58.2266 214.641 57.4844C214.352 56.7344 214.207 55.9375 214.207 55.0938V54.625C214.207 53.6641 214.344 52.7852 214.617 51.9883C214.891 51.1914 215.281 50.5 215.789 49.9141C216.305 49.3281 216.93 48.8789 217.664 48.5664C218.398 48.2461 219.227 48.0859 220.148 48.0859C221.047 48.0859 221.844 48.2344 222.539 48.5312C223.234 48.8281 223.816 49.25 224.285 49.7969C224.762 50.3438 225.121 51 225.363 51.7656C225.605 52.5234 225.727 53.3672 225.727 54.2969V55.7031H215.648V53.4531H222.41V53.1953C222.41 52.7266 222.324 52.3086 222.152 51.9414C221.988 51.5664 221.738 51.2695 221.402 51.0508C221.066 50.832 220.637 50.7227 220.113 50.7227C219.668 50.7227 219.285 50.8203 218.965 51.0156C218.645 51.2109 218.383 51.4844 218.18 51.8359C217.984 52.1875 217.836 52.6016 217.734 53.0781C217.641 53.5469 217.594 54.0625 217.594 54.625V55.0938C217.594 55.6016 217.664 56.0703 217.805 56.5C217.953 56.9297 218.16 57.3008 218.426 57.6133C218.699 57.9258 219.027 58.168 219.41 58.3398C219.801 58.5117 220.242 58.5977 220.734 58.5977C221.344 58.5977 221.91 58.4805 222.434 58.2461C222.965 58.0039 223.422 57.6406 223.805 57.1562L225.445 58.9375C225.18 59.3203 224.816 59.6875 224.355 60.0391C223.902 60.3906 223.355 60.6797 222.715 60.9062C222.074 61.125 221.344 61.2344 220.523 61.2344ZM234.504 57.4961C234.504 57.2539 234.434 57.0352 234.293 56.8398C234.152 56.6445 233.891 56.4648 233.508 56.3008C233.133 56.1289 232.59 55.9727 231.879 55.832C231.238 55.6914 230.641 55.5156 230.086 55.3047C229.539 55.0859 229.062 54.8242 228.656 54.5195C228.258 54.2148 227.945 53.8555 227.719 53.4414C227.492 53.0195 227.379 52.5391 227.379 52C227.379 51.4688 227.492 50.9688 227.719 50.5C227.953 50.0312 228.285 49.6172 228.715 49.2578C229.152 48.8906 229.684 48.6055 230.309 48.4023C230.941 48.1914 231.652 48.0859 232.441 48.0859C233.543 48.0859 234.488 48.2617 235.277 48.6133C236.074 48.9648 236.684 49.4492 237.105 50.0664C237.535 50.6758 237.75 51.3711 237.75 52.1523H234.375C234.375 51.8242 234.305 51.5312 234.164 51.2734C234.031 51.0078 233.82 50.8008 233.531 50.6523C233.25 50.4961 232.883 50.418 232.43 50.418C232.055 50.418 231.73 50.4844 231.457 50.6172C231.184 50.7422 230.973 50.9141 230.824 51.1328C230.684 51.3438 230.613 51.5781 230.613 51.8359C230.613 52.0312 230.652 52.207 230.73 52.3633C230.816 52.5117 230.953 52.6484 231.141 52.7734C231.328 52.8984 231.57 53.0156 231.867 53.125C232.172 53.2266 232.547 53.3203 232.992 53.4062C233.906 53.5938 234.723 53.8398 235.441 54.1445C236.16 54.4414 236.73 54.8477 237.152 55.3633C237.574 55.8711 237.785 56.5391 237.785 57.3672C237.785 57.9297 237.66 58.4453 237.41 58.9141C237.16 59.3828 236.801 59.793 236.332 60.1445C235.863 60.4883 235.301 60.7578 234.645 60.9531C233.996 61.1406 233.266 61.2344 232.453 61.2344C231.273 61.2344 230.273 61.0234 229.453 60.6016C228.641 60.1797 228.023 59.6445 227.602 58.9961C227.188 58.3398 226.98 57.668 226.98 56.9805H230.18C230.195 57.4414 230.312 57.8125 230.531 58.0938C230.758 58.375 231.043 58.5781 231.387 58.7031C231.738 58.8281 232.117 58.8906 232.523 58.8906C232.961 58.8906 233.324 58.832 233.613 58.7148C233.902 58.5898 234.121 58.4258 234.27 58.2227C234.426 58.0117 234.504 57.7695 234.504 57.4961Z" fill="#888888"/>
<path d="M104.344 84.875V119H96.1406V84.875H104.344ZM117.727 99.0078V119H109.828V93.6406H117.234L117.727 99.0078ZM116.766 105.453L114.961 105.5C114.961 103.719 115.172 102.078 115.594 100.578C116.016 99.0781 116.641 97.7734 117.469 96.6641C118.297 95.5547 119.312 94.6953 120.516 94.0859C121.734 93.4766 123.141 93.1719 124.734 93.1719C125.844 93.1719 126.852 93.3438 127.758 93.6875C128.664 94.0156 129.445 94.5391 130.102 95.2578C130.758 95.9609 131.258 96.8828 131.602 98.0234C131.961 99.1484 132.141 100.5 132.141 102.078V119H124.242V103.086C124.242 102.008 124.117 101.195 123.867 100.648C123.633 100.102 123.289 99.7344 122.836 99.5469C122.383 99.3594 121.828 99.2656 121.172 99.2656C120.484 99.2656 119.867 99.4219 119.32 99.7344C118.773 100.047 118.305 100.484 117.914 101.047C117.539 101.594 117.25 102.242 117.047 102.992C116.859 103.742 116.766 104.562 116.766 105.453ZM131.25 105.453L129.047 105.5C129.047 103.719 129.242 102.078 129.633 100.578C130.039 99.0781 130.641 97.7734 131.438 96.6641C132.25 95.5547 133.258 94.6953 134.461 94.0859C135.664 93.4766 137.062 93.1719 138.656 93.1719C139.812 93.1719 140.875 93.3438 141.844 93.6875C142.812 94.0312 143.648 94.5859 144.352 95.3516C145.055 96.1172 145.602 97.1328 145.992 98.3984C146.383 99.6484 146.578 101.195 146.578 103.039V119H138.656V103.039C138.656 101.992 138.531 101.203 138.281 100.672C138.047 100.125 137.703 99.7578 137.25 99.5703C136.797 99.3672 136.258 99.2656 135.633 99.2656C134.883 99.2656 134.234 99.4219 133.688 99.7344C133.141 100.047 132.68 100.484 132.305 101.047C131.945 101.594 131.68 102.242 131.508 102.992C131.336 103.742 131.25 104.562 131.25 105.453ZM159.07 98.5156V128.75H151.172V93.6406H158.531L159.07 98.5156ZM174.633 106.016V106.508C174.633 108.352 174.422 110.062 174 111.641C173.578 113.219 172.953 114.594 172.125 115.766C171.297 116.938 170.266 117.852 169.031 118.508C167.812 119.148 166.398 119.469 164.789 119.469C163.273 119.469 161.969 119.133 160.875 118.461C159.781 117.789 158.867 116.859 158.133 115.672C157.398 114.484 156.805 113.125 156.352 111.594C155.898 110.062 155.539 108.445 155.273 106.742V106.109C155.539 104.281 155.898 102.586 156.352 101.023C156.805 99.4453 157.398 98.0703 158.133 96.8984C158.867 95.7266 159.773 94.8125 160.852 94.1562C161.945 93.5 163.25 93.1719 164.766 93.1719C166.375 93.1719 167.789 93.4766 169.008 94.0859C170.242 94.6953 171.273 95.5703 172.102 96.7109C172.945 97.8359 173.578 99.1875 174 100.766C174.422 102.344 174.633 104.094 174.633 106.016ZM166.734 106.508V106.016C166.734 105.031 166.664 104.133 166.523 103.32C166.383 102.492 166.156 101.773 165.844 101.164C165.547 100.555 165.148 100.086 164.648 99.7578C164.148 99.4297 163.531 99.2656 162.797 99.2656C161.953 99.2656 161.242 99.3984 160.664 99.6641C160.102 99.9141 159.648 100.305 159.305 100.836C158.977 101.352 158.742 102 158.602 102.781C158.477 103.547 158.422 104.445 158.438 105.477V107.398C158.406 108.586 158.523 109.633 158.789 110.539C159.055 111.43 159.516 112.125 160.172 112.625C160.828 113.125 161.719 113.375 162.844 113.375C163.594 113.375 164.219 113.203 164.719 112.859C165.219 112.5 165.617 112.008 165.914 111.383C166.211 110.742 166.422 110.008 166.547 109.18C166.672 108.352 166.734 107.461 166.734 106.508ZM186.492 83V119H178.57V83H186.492ZM203.648 119.469C201.586 119.469 199.742 119.148 198.117 118.508C196.492 117.852 195.117 116.953 193.992 115.812C192.883 114.672 192.031 113.359 191.438 111.875C190.859 110.391 190.57 108.82 190.57 107.164V106.273C190.57 104.414 190.828 102.695 191.344 101.117C191.859 99.5234 192.625 98.1328 193.641 96.9453C194.656 95.7578 195.93 94.8359 197.461 94.1797C198.992 93.5078 200.773 93.1719 202.805 93.1719C204.602 93.1719 206.211 93.4609 207.633 94.0391C209.055 94.6172 210.258 95.4453 211.242 96.5234C212.242 97.6016 213 98.9062 213.516 100.438C214.047 101.969 214.312 103.688 214.312 105.594V108.805H193.594V103.859H206.602V103.25C206.617 102.406 206.469 101.688 206.156 101.094C205.859 100.5 205.422 100.047 204.844 99.7344C204.266 99.4219 203.562 99.2656 202.734 99.2656C201.875 99.2656 201.164 99.4531 200.602 99.8281C200.055 100.203 199.625 100.719 199.312 101.375C199.016 102.016 198.805 102.758 198.68 103.602C198.555 104.445 198.492 105.336 198.492 106.273V107.164C198.492 108.102 198.617 108.953 198.867 109.719C199.133 110.484 199.508 111.141 199.992 111.688C200.492 112.219 201.086 112.633 201.773 112.93C202.477 113.227 203.273 113.375 204.164 113.375C205.242 113.375 206.305 113.172 207.352 112.766C208.398 112.359 209.297 111.688 210.047 110.75L213.633 115.016C213.117 115.75 212.383 116.461 211.43 117.148C210.492 117.836 209.367 118.398 208.055 118.836C206.742 119.258 205.273 119.469 203.648 119.469ZM225.492 99.0078V119H217.594V93.6406H225L225.492 99.0078ZM224.531 105.453L222.727 105.5C222.727 103.719 222.938 102.078 223.359 100.578C223.781 99.0781 224.406 97.7734 225.234 96.6641C226.062 95.5547 227.078 94.6953 228.281 94.0859C229.5 93.4766 230.906 93.1719 232.5 93.1719C233.609 93.1719 234.617 93.3438 235.523 93.6875C236.43 94.0156 237.211 94.5391 237.867 95.2578C238.523 95.9609 239.023 96.8828 239.367 98.0234C239.727 99.1484 239.906 100.5 239.906 102.078V119H232.008V103.086C232.008 102.008 231.883 101.195 231.633 100.648C231.398 100.102 231.055 99.7344 230.602 99.5469C230.148 99.3594 229.594 99.2656 228.938 99.2656C228.25 99.2656 227.633 99.4219 227.086 99.7344C226.539 100.047 226.07 100.484 225.68 101.047C225.305 101.594 225.016 102.242 224.812 102.992C224.625 103.742 224.531 104.562 224.531 105.453ZM239.016 105.453L236.812 105.5C236.812 103.719 237.008 102.078 237.398 100.578C237.805 99.0781 238.406 97.7734 239.203 96.6641C240.016 95.5547 241.023 94.6953 242.227 94.0859C243.43 93.4766 244.828 93.1719 246.422 93.1719C247.578 93.1719 248.641 93.3438 249.609 93.6875C250.578 94.0312 251.414 94.5859 252.117 95.3516C252.82 96.1172 253.367 97.1328 253.758 98.3984C254.148 99.6484 254.344 101.195 254.344 103.039V119H246.422V103.039C246.422 101.992 246.297 101.203 246.047 100.672C245.812 100.125 245.469 99.7578 245.016 99.5703C244.562 99.3672 244.023 99.2656 243.398 99.2656C242.648 99.2656 242 99.4219 241.453 99.7344C240.906 100.047 240.445 100.484 240.07 101.047C239.711 101.594 239.445 102.242 239.273 102.992C239.102 103.742 239.016 104.562 239.016 105.453ZM271.148 119.469C269.086 119.469 267.242 119.148 265.617 118.508C263.992 117.852 262.617 116.953 261.492 115.812C260.383 114.672 259.531 113.359 258.938 111.875C258.359 110.391 258.07 108.82 258.07 107.164V106.273C258.07 104.414 258.328 102.695 258.844 101.117C259.359 99.5234 260.125 98.1328 261.141 96.9453C262.156 95.7578 263.43 94.8359 264.961 94.1797C266.492 93.5078 268.273 93.1719 270.305 93.1719C272.102 93.1719 273.711 93.4609 275.133 94.0391C276.555 94.6172 277.758 95.4453 278.742 96.5234C279.742 97.6016 280.5 98.9062 281.016 100.438C281.547 101.969 281.812 103.688 281.812 105.594V108.805H261.094V103.859H274.102V103.25C274.117 102.406 273.969 101.688 273.656 101.094C273.359 100.5 272.922 100.047 272.344 99.7344C271.766 99.4219 271.062 99.2656 270.234 99.2656C269.375 99.2656 268.664 99.4531 268.102 99.8281C267.555 100.203 267.125 100.719 266.812 101.375C266.516 102.016 266.305 102.758 266.18 103.602C266.055 104.445 265.992 105.336 265.992 106.273V107.164C265.992 108.102 266.117 108.953 266.367 109.719C266.633 110.484 267.008 111.141 267.492 111.688C267.992 112.219 268.586 112.633 269.273 112.93C269.977 113.227 270.773 113.375 271.664 113.375C272.742 113.375 273.805 113.172 274.852 112.766C275.898 112.359 276.797 111.688 277.547 110.75L281.133 115.016C280.617 115.75 279.883 116.461 278.93 117.148C277.992 117.836 276.867 118.398 275.555 118.836C274.242 119.258 272.773 119.469 271.148 119.469ZM292.781 99.0547V119H284.883V93.6406H292.289L292.781 99.0547ZM291.844 105.453L289.992 105.5C289.992 103.562 290.227 101.836 290.695 100.32C291.164 98.7891 291.828 97.4922 292.688 96.4297C293.547 95.3672 294.57 94.5625 295.758 94.0156C296.961 93.4531 298.297 93.1719 299.766 93.1719C300.938 93.1719 302.008 93.3438 302.977 93.6875C303.961 94.0312 304.805 94.5859 305.508 95.3516C306.227 96.1172 306.773 97.1328 307.148 98.3984C307.539 99.6484 307.734 101.195 307.734 103.039V119H299.789V103.016C299.789 102 299.648 101.227 299.367 100.695C299.086 100.148 298.68 99.7734 298.148 99.5703C297.617 99.3672 296.969 99.2656 296.203 99.2656C295.391 99.2656 294.703 99.4219 294.141 99.7344C293.578 100.047 293.125 100.484 292.781 101.047C292.453 101.594 292.211 102.242 292.055 102.992C291.914 103.742 291.844 104.562 291.844 105.453ZM325.477 93.6406V99.125H310.195V93.6406H325.477ZM313.406 87.3359H321.305V110.727C321.305 111.398 321.383 111.922 321.539 112.297C321.695 112.656 321.961 112.914 322.336 113.07C322.727 113.211 323.242 113.281 323.883 113.281C324.336 113.281 324.711 113.273 325.008 113.258C325.305 113.227 325.586 113.188 325.852 113.141V118.789C325.18 119.008 324.477 119.172 323.742 119.281C323.008 119.406 322.227 119.469 321.398 119.469C319.711 119.469 318.266 119.203 317.062 118.672C315.875 118.141 314.969 117.305 314.344 116.164C313.719 115.023 313.406 113.539 313.406 111.711V87.3359ZM341.789 112.625V102.172C341.789 101.453 341.688 100.836 341.484 100.32C341.281 99.8047 340.961 99.4062 340.523 99.125C340.086 98.8281 339.5 98.6797 338.766 98.6797C338.172 98.6797 337.664 98.7812 337.242 98.9844C336.82 99.1875 336.5 99.4922 336.281 99.8984C336.062 100.305 335.953 100.82 335.953 101.445H328.055C328.055 100.273 328.312 99.1875 328.828 98.1875C329.359 97.1719 330.109 96.2891 331.078 95.5391C332.062 94.7891 333.234 94.2109 334.594 93.8047C335.969 93.3828 337.5 93.1719 339.188 93.1719C341.203 93.1719 343 93.5078 344.578 94.1797C346.172 94.8516 347.43 95.8594 348.352 97.2031C349.273 98.5312 349.734 100.203 349.734 102.219V112.602C349.734 114.258 349.828 115.516 350.016 116.375C350.203 117.219 350.469 117.961 350.812 118.602V119H342.891C342.516 118.219 342.234 117.266 342.047 116.141C341.875 115 341.789 113.828 341.789 112.625ZM342.75 103.508L342.797 107.727H339.305C338.57 107.727 337.945 107.828 337.43 108.031C336.93 108.234 336.523 108.516 336.211 108.875C335.914 109.219 335.695 109.609 335.555 110.047C335.43 110.484 335.367 110.945 335.367 111.43C335.367 111.898 335.477 112.32 335.695 112.695C335.93 113.055 336.242 113.336 336.633 113.539C337.023 113.742 337.461 113.844 337.945 113.844C338.82 113.844 339.562 113.68 340.172 113.352C340.797 113.008 341.273 112.594 341.602 112.109C341.93 111.625 342.094 111.172 342.094 110.75L343.828 113.984C343.516 114.609 343.156 115.242 342.75 115.883C342.359 116.523 341.867 117.117 341.273 117.664C340.695 118.195 339.984 118.633 339.141 118.977C338.297 119.305 337.273 119.469 336.07 119.469C334.508 119.469 333.07 119.148 331.758 118.508C330.461 117.867 329.422 116.977 328.641 115.836C327.859 114.68 327.469 113.352 327.469 111.852C327.469 110.539 327.703 109.367 328.172 108.336C328.656 107.305 329.383 106.43 330.352 105.711C331.32 104.992 332.555 104.445 334.055 104.07C335.555 103.695 337.32 103.508 339.352 103.508H342.75ZM367.477 93.6406V99.125H352.195V93.6406H367.477ZM355.406 87.3359H363.305V110.727C363.305 111.398 363.383 111.922 363.539 112.297C363.695 112.656 363.961 112.914 364.336 113.07C364.727 113.211 365.242 113.281 365.883 113.281C366.336 113.281 366.711 113.273 367.008 113.258C367.305 113.227 367.586 113.188 367.852 113.141V118.789C367.18 119.008 366.477 119.172 365.742 119.281C365.008 119.406 364.227 119.469 363.398 119.469C361.711 119.469 360.266 119.203 359.062 118.672C357.875 118.141 356.969 117.305 356.344 116.164C355.719 115.023 355.406 113.539 355.406 111.711V87.3359ZM378.961 93.6406V119H371.039V93.6406H378.961ZM370.57 87.1016C370.57 85.9766 370.977 85.0547 371.789 84.3359C372.602 83.6172 373.656 83.2578 374.953 83.2578C376.25 83.2578 377.305 83.6172 378.117 84.3359C378.93 85.0547 379.336 85.9766 379.336 87.1016C379.336 88.2266 378.93 89.1484 378.117 89.8672C377.305 90.5859 376.25 90.9453 374.953 90.9453C373.656 90.9453 372.602 90.5859 371.789 89.8672C370.977 89.1484 370.57 88.2266 370.57 87.1016ZM382.852 106.578V106.086C382.852 104.227 383.117 102.516 383.648 100.953C384.18 99.375 384.961 98.0078 385.992 96.8516C387.023 95.6953 388.297 94.7969 389.812 94.1562C391.328 93.5 393.078 93.1719 395.062 93.1719C397.062 93.1719 398.82 93.5 400.336 94.1562C401.867 94.7969 403.148 95.6953 404.18 96.8516C405.211 98.0078 405.992 99.375 406.523 100.953C407.055 102.516 407.32 104.227 407.32 106.086V106.578C407.32 108.422 407.055 110.133 406.523 111.711C405.992 113.273 405.211 114.641 404.18 115.812C403.148 116.969 401.875 117.867 400.359 118.508C398.844 119.148 397.094 119.469 395.109 119.469C393.125 119.469 391.367 119.148 389.836 118.508C388.305 117.867 387.023 116.969 385.992 115.812C384.961 114.641 384.18 113.273 383.648 111.711C383.117 110.133 382.852 108.422 382.852 106.578ZM390.75 106.086V106.578C390.75 107.531 390.82 108.422 390.961 109.25C391.102 110.078 391.336 110.805 391.664 111.43C391.992 112.039 392.438 112.516 393 112.859C393.562 113.203 394.266 113.375 395.109 113.375C395.938 113.375 396.625 113.203 397.172 112.859C397.734 112.516 398.18 112.039 398.508 111.43C398.836 110.805 399.07 110.078 399.211 109.25C399.352 108.422 399.422 107.531 399.422 106.578V106.086C399.422 105.164 399.352 104.297 399.211 103.484C399.07 102.656 398.836 101.93 398.508 101.305C398.18 100.664 397.734 100.164 397.172 99.8047C396.609 99.4453 395.906 99.2656 395.062 99.2656C394.234 99.2656 393.539 99.4453 392.977 99.8047C392.43 100.164 391.992 100.664 391.664 101.305C391.336 101.93 391.102 102.656 390.961 103.484C390.82 104.297 390.75 105.164 390.75 106.086ZM418.594 99.0547V119H410.695V93.6406H418.102L418.594 99.0547ZM417.656 105.453L415.805 105.5C415.805 103.562 416.039 101.836 416.508 100.32C416.977 98.7891 417.641 97.4922 418.5 96.4297C419.359 95.3672 420.383 94.5625 421.57 94.0156C422.773 93.4531 424.109 93.1719 425.578 93.1719C426.75 93.1719 427.82 93.3438 428.789 93.6875C429.773 94.0312 430.617 94.5859 431.32 95.3516C432.039 96.1172 432.586 97.1328 432.961 98.3984C433.352 99.6484 433.547 101.195 433.547 103.039V119H425.602V103.016C425.602 102 425.461 101.227 425.18 100.695C424.898 100.148 424.492 99.7734 423.961 99.5703C423.43 99.3672 422.781 99.2656 422.016 99.2656C421.203 99.2656 420.516 99.4219 419.953 99.7344C419.391 100.047 418.938 100.484 418.594 101.047C418.266 101.594 418.023 102.242 417.867 102.992C417.727 103.742 417.656 104.562 417.656 105.453Z" fill="black"/>
<path d="M1134 0H1348C1356.28 0 1363 6.71573 1363 15V148C1363 156.284 1356.28 163 1348 163H1134V0Z" fill="#E87A00"/>
<path d="M1280.07 47.5H1216.93L1214.5 49.9286V113.071L1216.93 115.5H1280.07L1282.5 113.071V49.9286L1280.07 47.5ZM1277.64 110.643H1233.93V100.929H1245.1C1246.56 103.843 1249.96 105.786 1253.36 105.786C1258.7 105.786 1263.07 101.414 1263.07 96.0714C1263.07 90.7286 1258.7 86.3571 1253.36 86.3571C1248.01 86.3571 1243.64 90.7286 1243.64 96.0714H1229.07V110.643H1219.36V52.3571H1229.07V63.5286C1226.16 64.9857 1224.21 68.3857 1224.21 71.7857C1224.21 77.1286 1228.59 81.5 1233.93 81.5C1239.27 81.5 1243.64 77.1286 1243.64 71.7857H1253.36C1253.36 77.1286 1257.73 81.5 1263.07 81.5C1268.41 81.5 1272.79 77.1286 1272.79 71.7857C1272.79 66.4429 1268.41 62.0714 1263.07 62.0714C1259.67 62.0714 1256.27 64.0143 1254.81 66.9286H1242.19C1240.73 64.0143 1237.33 62.0714 1233.93 62.0714V52.3571H1277.64V110.643ZM1248.5 96.0714C1248.5 93.1571 1250.44 91.2143 1253.36 91.2143C1256.27 91.2143 1258.21 93.1571 1258.21 96.0714C1258.21 98.9857 1256.27 100.929 1253.36 100.929C1250.44 100.929 1248.5 98.9857 1248.5 96.0714ZM1233.93 66.9286C1236.84 66.9286 1238.79 68.8714 1238.79 71.7857C1238.79 74.7 1236.84 76.6429 1233.93 76.6429C1231.01 76.6429 1229.07 74.7 1229.07 71.7857C1229.07 68.8714 1231.01 66.9286 1233.93 66.9286ZM1263.07 66.9286C1265.99 66.9286 1267.93 68.8714 1267.93 71.7857C1267.93 74.7 1265.99 76.6429 1263.07 76.6429C1260.16 76.6429 1258.21 74.7 1258.21 71.7857C1258.21 68.8714 1260.16 66.9286 1263.07 66.9286Z" fill="white"/>
</svg>
