<svg width="1363" height="163" viewBox="0 0 1363 163" fill="none" xmlns="http://www.w3.org/2000/svg">
<path d="M0 15C0 6.71573 6.71573 0 15 0H37V163H15C6.71573 163 0 156.284 0 148V15Z" fill="#424242"/>
<rect width="1097" height="163" transform="translate(37)" fill="#F0F0F0"/>
<path d="M102.152 43.9375V61H98.6484V43.9375H102.152ZM107.402 43.9375V46.6914H93.4805V43.9375H107.402ZM111.75 51.0859V61H108.375V48.3203H111.551L111.75 51.0859ZM115.57 48.2383L115.512 51.3672C115.348 51.3438 115.148 51.3242 114.914 51.3086C114.688 51.2852 114.48 51.2734 114.293 51.2734C113.816 51.2734 113.402 51.3359 113.051 51.4609C112.707 51.5781 112.418 51.7539 112.184 51.9883C111.957 52.2227 111.785 52.5078 111.668 52.8438C111.559 53.1797 111.496 53.5625 111.48 53.9922L110.801 53.7812C110.801 52.9609 110.883 52.207 111.047 51.5195C111.211 50.8242 111.449 50.2188 111.762 49.7031C112.082 49.1875 112.473 48.7891 112.934 48.5078C113.395 48.2266 113.922 48.0859 114.516 48.0859C114.703 48.0859 114.895 48.1016 115.09 48.1328C115.285 48.1562 115.445 48.1914 115.57 48.2383ZM122.766 61.2344C121.781 61.2344 120.898 61.0781 120.117 60.7656C119.336 60.4453 118.672 60.0039 118.125 59.4414C117.586 58.8789 117.172 58.2266 116.883 57.4844C116.594 56.7344 116.449 55.9375 116.449 55.0938V54.625C116.449 53.6641 116.586 52.7852 116.859 51.9883C117.133 51.1914 117.523 50.5 118.031 49.9141C118.547 49.3281 119.172 48.8789 119.906 48.5664C120.641 48.2461 121.469 48.0859 122.391 48.0859C123.289 48.0859 124.086 48.2344 124.781 48.5312C125.477 48.8281 126.059 49.25 126.527 49.7969C127.004 50.3438 127.363 51 127.605 51.7656C127.848 52.5234 127.969 53.3672 127.969 54.2969V55.7031H117.891V53.4531H124.652V53.1953C124.652 52.7266 124.566 52.3086 124.395 51.9414C124.23 51.5664 123.98 51.2695 123.645 51.0508C123.309 50.832 122.879 50.7227 122.355 50.7227C121.91 50.7227 121.527 50.8203 121.207 51.0156C120.887 51.2109 120.625 51.4844 120.422 51.8359C120.227 52.1875 120.078 52.6016 119.977 53.0781C119.883 53.5469 119.836 54.0625 119.836 54.625V55.0938C119.836 55.6016 119.906 56.0703 120.047 56.5C120.195 56.9297 120.402 57.3008 120.668 57.6133C120.941 57.9258 121.27 58.168 121.652 58.3398C122.043 58.5117 122.484 58.5977 122.977 58.5977C123.586 58.5977 124.152 58.4805 124.676 58.2461C125.207 58.0039 125.664 57.6406 126.047 57.1562L127.688 58.9375C127.422 59.3203 127.059 59.6875 126.598 60.0391C126.145 60.3906 125.598 60.6797 124.957 60.9062C124.316 61.125 123.586 61.2344 122.766 61.2344ZM133.266 42.9883V61H129.891V42.9883H133.266ZM141.258 48.3203L135.75 54.6016L132.797 57.5898L131.566 55.1523L133.91 52.1758L137.203 48.3203H141.258ZM137.754 61L134.004 55.1406L136.336 53.1016L141.645 61H137.754ZM146.086 42.9883V61H142.711V42.9883H146.086ZM154.078 48.3203L148.57 54.6016L145.617 57.5898L144.387 55.1523L146.73 52.1758L150.023 48.3203H154.078ZM150.574 61L146.824 55.1406L149.156 53.1016L154.465 61H150.574ZM161.133 61.2344C160.148 61.2344 159.266 61.0781 158.484 60.7656C157.703 60.4453 157.039 60.0039 156.492 59.4414C155.953 58.8789 155.539 58.2266 155.25 57.4844C154.961 56.7344 154.816 55.9375 154.816 55.0938V54.625C154.816 53.6641 154.953 52.7852 155.227 51.9883C155.5 51.1914 155.891 50.5 156.398 49.9141C156.914 49.3281 157.539 48.8789 158.273 48.5664C159.008 48.2461 159.836 48.0859 160.758 48.0859C161.656 48.0859 162.453 48.2344 163.148 48.5312C163.844 48.8281 164.426 49.25 164.895 49.7969C165.371 50.3438 165.73 51 165.973 51.7656C166.215 52.5234 166.336 53.3672 166.336 54.2969V55.7031H156.258V53.4531H163.02V53.1953C163.02 52.7266 162.934 52.3086 162.762 51.9414C162.598 51.5664 162.348 51.2695 162.012 51.0508C161.676 50.832 161.246 50.7227 160.723 50.7227C160.277 50.7227 159.895 50.8203 159.574 51.0156C159.254 51.2109 158.992 51.4844 158.789 51.8359C158.594 52.1875 158.445 52.6016 158.344 53.0781C158.25 53.5469 158.203 54.0625 158.203 54.625V55.0938C158.203 55.6016 158.273 56.0703 158.414 56.5C158.562 56.9297 158.77 57.3008 159.035 57.6133C159.309 57.9258 159.637 58.168 160.02 58.3398C160.41 58.5117 160.852 58.5977 161.344 58.5977C161.953 58.5977 162.52 58.4805 163.043 58.2461C163.574 58.0039 164.031 57.6406 164.414 57.1562L166.055 58.9375C165.789 59.3203 165.426 59.6875 164.965 60.0391C164.512 60.3906 163.965 60.6797 163.324 60.9062C162.684 61.125 161.953 61.2344 161.133 61.2344ZM171.633 51.0859V61H168.258V48.3203H171.434L171.633 51.0859ZM175.453 48.2383L175.395 51.3672C175.23 51.3438 175.031 51.3242 174.797 51.3086C174.57 51.2852 174.363 51.2734 174.176 51.2734C173.699 51.2734 173.285 51.3359 172.934 51.4609C172.59 51.5781 172.301 51.7539 172.066 51.9883C171.84 52.2227 171.668 52.5078 171.551 52.8438C171.441 53.1797 171.379 53.5625 171.363 53.9922L170.684 53.7812C170.684 52.9609 170.766 52.207 170.93 51.5195C171.094 50.8242 171.332 50.2188 171.645 49.7031C171.965 49.1875 172.355 48.7891 172.816 48.5078C173.277 48.2266 173.805 48.0859 174.398 48.0859C174.586 48.0859 174.777 48.1016 174.973 48.1328C175.168 48.1562 175.328 48.1914 175.453 48.2383ZM190.23 43.9375V61H186.727V43.9375H190.23ZM195.48 43.9375V46.6914H181.559V43.9375H195.48ZM202.336 58.1406V52.4922C202.336 52.0859 202.27 51.7383 202.137 51.4492C202.004 51.1523 201.797 50.9219 201.516 50.7578C201.242 50.5938 200.887 50.5117 200.449 50.5117C200.074 50.5117 199.75 50.5781 199.477 50.7109C199.203 50.8359 198.992 51.0195 198.844 51.2617C198.695 51.4961 198.621 51.7734 198.621 52.0938H195.246C195.246 51.5547 195.371 51.043 195.621 50.5586C195.871 50.0742 196.234 49.6484 196.711 49.2812C197.188 48.9062 197.754 48.6133 198.41 48.4023C199.074 48.1914 199.816 48.0859 200.637 48.0859C201.621 48.0859 202.496 48.25 203.262 48.5781C204.027 48.9062 204.629 49.3984 205.066 50.0547C205.512 50.7109 205.734 51.5312 205.734 52.5156V57.9414C205.734 58.6367 205.777 59.207 205.863 59.6523C205.949 60.0898 206.074 60.4727 206.238 60.8008V61H202.828C202.664 60.6562 202.539 60.2266 202.453 59.7109C202.375 59.1875 202.336 58.6641 202.336 58.1406ZM202.781 53.2773L202.805 55.1875H200.918C200.473 55.1875 200.086 55.2383 199.758 55.3398C199.43 55.4414 199.16 55.5859 198.949 55.7734C198.738 55.9531 198.582 56.1641 198.48 56.4062C198.387 56.6484 198.34 56.9141 198.34 57.2031C198.34 57.4922 198.406 57.7539 198.539 57.9883C198.672 58.2148 198.863 58.3945 199.113 58.5273C199.363 58.6523 199.656 58.7148 199.992 58.7148C200.5 58.7148 200.941 58.6133 201.316 58.4102C201.691 58.207 201.98 57.957 202.184 57.6602C202.395 57.3633 202.504 57.082 202.512 56.8164L203.402 58.2461C203.277 58.5664 203.105 58.8984 202.887 59.2422C202.676 59.5859 202.406 59.9102 202.078 60.2148C201.75 60.5117 201.355 60.7578 200.895 60.9531C200.434 61.1406 199.887 61.2344 199.254 61.2344C198.449 61.2344 197.719 61.0742 197.062 60.7539C196.414 60.4258 195.898 59.9766 195.516 59.4062C195.141 58.8281 194.953 58.1719 194.953 57.4375C194.953 56.7734 195.078 56.1836 195.328 55.668C195.578 55.1523 195.945 54.7188 196.43 54.3672C196.922 54.0078 197.535 53.7383 198.27 53.5586C199.004 53.3711 199.855 53.2773 200.824 53.2773H202.781ZM211.898 43V61H208.512V43H211.898ZM220.523 61.2344C219.539 61.2344 218.656 61.0781 217.875 60.7656C217.094 60.4453 216.43 60.0039 215.883 59.4414C215.344 58.8789 214.93 58.2266 214.641 57.4844C214.352 56.7344 214.207 55.9375 214.207 55.0938V54.625C214.207 53.6641 214.344 52.7852 214.617 51.9883C214.891 51.1914 215.281 50.5 215.789 49.9141C216.305 49.3281 216.93 48.8789 217.664 48.5664C218.398 48.2461 219.227 48.0859 220.148 48.0859C221.047 48.0859 221.844 48.2344 222.539 48.5312C223.234 48.8281 223.816 49.25 224.285 49.7969C224.762 50.3438 225.121 51 225.363 51.7656C225.605 52.5234 225.727 53.3672 225.727 54.2969V55.7031H215.648V53.4531H222.41V53.1953C222.41 52.7266 222.324 52.3086 222.152 51.9414C221.988 51.5664 221.738 51.2695 221.402 51.0508C221.066 50.832 220.637 50.7227 220.113 50.7227C219.668 50.7227 219.285 50.8203 218.965 51.0156C218.645 51.2109 218.383 51.4844 218.18 51.8359C217.984 52.1875 217.836 52.6016 217.734 53.0781C217.641 53.5469 217.594 54.0625 217.594 54.625V55.0938C217.594 55.6016 217.664 56.0703 217.805 56.5C217.953 56.9297 218.16 57.3008 218.426 57.6133C218.699 57.9258 219.027 58.168 219.41 58.3398C219.801 58.5117 220.242 58.5977 220.734 58.5977C221.344 58.5977 221.91 58.4805 222.434 58.2461C222.965 58.0039 223.422 57.6406 223.805 57.1562L225.445 58.9375C225.18 59.3203 224.816 59.6875 224.355 60.0391C223.902 60.3906 223.355 60.6797 222.715 60.9062C222.074 61.125 221.344 61.2344 220.523 61.2344ZM234.504 57.4961C234.504 57.2539 234.434 57.0352 234.293 56.8398C234.152 56.6445 233.891 56.4648 233.508 56.3008C233.133 56.1289 232.59 55.9727 231.879 55.832C231.238 55.6914 230.641 55.5156 230.086 55.3047C229.539 55.0859 229.062 54.8242 228.656 54.5195C228.258 54.2148 227.945 53.8555 227.719 53.4414C227.492 53.0195 227.379 52.5391 227.379 52C227.379 51.4688 227.492 50.9688 227.719 50.5C227.953 50.0312 228.285 49.6172 228.715 49.2578C229.152 48.8906 229.684 48.6055 230.309 48.4023C230.941 48.1914 231.652 48.0859 232.441 48.0859C233.543 48.0859 234.488 48.2617 235.277 48.6133C236.074 48.9648 236.684 49.4492 237.105 50.0664C237.535 50.6758 237.75 51.3711 237.75 52.1523H234.375C234.375 51.8242 234.305 51.5312 234.164 51.2734C234.031 51.0078 233.82 50.8008 233.531 50.6523C233.25 50.4961 232.883 50.418 232.43 50.418C232.055 50.418 231.73 50.4844 231.457 50.6172C231.184 50.7422 230.973 50.9141 230.824 51.1328C230.684 51.3438 230.613 51.5781 230.613 51.8359C230.613 52.0312 230.652 52.207 230.73 52.3633C230.816 52.5117 230.953 52.6484 231.141 52.7734C231.328 52.8984 231.57 53.0156 231.867 53.125C232.172 53.2266 232.547 53.3203 232.992 53.4062C233.906 53.5938 234.723 53.8398 235.441 54.1445C236.16 54.4414 236.73 54.8477 237.152 55.3633C237.574 55.8711 237.785 56.5391 237.785 57.3672C237.785 57.9297 237.66 58.4453 237.41 58.9141C237.16 59.3828 236.801 59.793 236.332 60.1445C235.863 60.4883 235.301 60.7578 234.645 60.9531C233.996 61.1406 233.266 61.2344 232.453 61.2344C231.273 61.2344 230.273 61.0234 229.453 60.6016C228.641 60.1797 228.023 59.6445 227.602 58.9961C227.188 58.3398 226.98 57.668 226.98 56.9805H230.18C230.195 57.4414 230.312 57.8125 230.531 58.0938C230.758 58.375 231.043 58.5781 231.387 58.7031C231.738 58.8281 232.117 58.8906 232.523 58.8906C232.961 58.8906 233.324 58.832 233.613 58.7148C233.902 58.5898 234.121 58.4258 234.27 58.2227C234.426 58.0117 234.504 57.7695 234.504 57.4961Z" fill="#888888"/>
<path d="M118.594 98.4219V104.75H101.086V98.4219H118.594ZM103.828 84.875V119H95.6016V84.875H103.828ZM124.125 84.875V119H115.922V84.875H124.125ZM127.992 106.578V106.086C127.992 104.227 128.258 102.516 128.789 100.953C129.32 99.375 130.102 98.0078 131.133 96.8516C132.164 95.6953 133.438 94.7969 134.953 94.1562C136.469 93.5 138.219 93.1719 140.203 93.1719C142.203 93.1719 143.961 93.5 145.477 94.1562C147.008 94.7969 148.289 95.6953 149.32 96.8516C150.352 98.0078 151.133 99.375 151.664 100.953C152.195 102.516 152.461 104.227 152.461 106.086V106.578C152.461 108.422 152.195 110.133 151.664 111.711C151.133 113.273 150.352 114.641 149.32 115.812C148.289 116.969 147.016 117.867 145.5 118.508C143.984 119.148 142.234 119.469 140.25 119.469C138.266 119.469 136.508 119.148 134.977 118.508C133.445 117.867 132.164 116.969 131.133 115.812C130.102 114.641 129.32 113.273 128.789 111.711C128.258 110.133 127.992 108.422 127.992 106.578ZM135.891 106.086V106.578C135.891 107.531 135.961 108.422 136.102 109.25C136.242 110.078 136.477 110.805 136.805 111.43C137.133 112.039 137.578 112.516 138.141 112.859C138.703 113.203 139.406 113.375 140.25 113.375C141.078 113.375 141.766 113.203 142.312 112.859C142.875 112.516 143.32 112.039 143.648 111.43C143.977 110.805 144.211 110.078 144.352 109.25C144.492 108.422 144.562 107.531 144.562 106.578V106.086C144.562 105.164 144.492 104.297 144.352 103.484C144.211 102.656 143.977 101.93 143.648 101.305C143.32 100.664 142.875 100.164 142.312 99.8047C141.75 99.4453 141.047 99.2656 140.203 99.2656C139.375 99.2656 138.68 99.4453 138.117 99.8047C137.57 100.164 137.133 100.664 136.805 101.305C136.477 101.93 136.242 102.656 136.102 103.484C135.961 104.297 135.891 105.164 135.891 106.086ZM163.688 111.453L168.375 93.6406H173.32L171.562 102.57L166.922 119H162.961L163.688 111.453ZM161.836 93.6406L164.742 111.312L165.07 119H160.266L154.266 93.6406H161.836ZM177.492 110.938L180.422 93.6406H187.992L182.039 119H177.234L177.492 110.938ZM173.883 93.6406L178.617 111.406L179.344 119H175.336L170.789 102.617L169.102 93.6406H173.883ZM218.297 84.875V119H210.07V84.875H218.297ZM228.562 84.875V91.2266H200.039V84.875H228.562ZM225.773 106.578V106.086C225.773 104.227 226.039 102.516 226.57 100.953C227.102 99.375 227.883 98.0078 228.914 96.8516C229.945 95.6953 231.219 94.7969 232.734 94.1562C234.25 93.5 236 93.1719 237.984 93.1719C239.984 93.1719 241.742 93.5 243.258 94.1562C244.789 94.7969 246.07 95.6953 247.102 96.8516C248.133 98.0078 248.914 99.375 249.445 100.953C249.977 102.516 250.242 104.227 250.242 106.086V106.578C250.242 108.422 249.977 110.133 249.445 111.711C248.914 113.273 248.133 114.641 247.102 115.812C246.07 116.969 244.797 117.867 243.281 118.508C241.766 119.148 240.016 119.469 238.031 119.469C236.047 119.469 234.289 119.148 232.758 118.508C231.227 117.867 229.945 116.969 228.914 115.812C227.883 114.641 227.102 113.273 226.57 111.711C226.039 110.133 225.773 108.422 225.773 106.578ZM233.672 106.086V106.578C233.672 107.531 233.742 108.422 233.883 109.25C234.023 110.078 234.258 110.805 234.586 111.43C234.914 112.039 235.359 112.516 235.922 112.859C236.484 113.203 237.188 113.375 238.031 113.375C238.859 113.375 239.547 113.203 240.094 112.859C240.656 112.516 241.102 112.039 241.43 111.43C241.758 110.805 241.992 110.078 242.133 109.25C242.273 108.422 242.344 107.531 242.344 106.578V106.086C242.344 105.164 242.273 104.297 242.133 103.484C241.992 102.656 241.758 101.93 241.43 101.305C241.102 100.664 240.656 100.164 240.094 99.8047C239.531 99.4453 238.828 99.2656 237.984 99.2656C237.156 99.2656 236.461 99.4453 235.898 99.8047C235.352 100.164 234.914 100.664 234.586 101.305C234.258 101.93 234.023 102.656 233.883 103.484C233.742 104.297 233.672 105.164 233.672 106.086ZM266.086 84.875H279.516C282.141 84.875 284.422 85.2656 286.359 86.0469C288.297 86.8281 289.789 87.9844 290.836 89.5156C291.898 91.0469 292.43 92.9375 292.43 95.1875C292.43 97.1406 292.125 98.7734 291.516 100.086C290.906 101.398 290.055 102.484 288.961 103.344C287.883 104.188 286.625 104.883 285.188 105.43L282.492 106.953H271.219L271.172 100.602H279.516C280.562 100.602 281.43 100.414 282.117 100.039C282.805 99.6641 283.32 99.1328 283.664 98.4453C284.023 97.7422 284.203 96.9062 284.203 95.9375C284.203 94.9531 284.023 94.1094 283.664 93.4062C283.305 92.7031 282.773 92.1641 282.07 91.7891C281.383 91.4141 280.531 91.2266 279.516 91.2266H274.312V119H266.086V84.875ZM284.766 119L277.219 103.906L285.938 103.859L293.578 118.648V119H284.766ZM311.836 112.836V93.6406H319.758V119H312.352L311.836 112.836ZM312.586 107.68L314.648 107.633C314.648 109.336 314.445 110.914 314.039 112.367C313.633 113.805 313.031 115.055 312.234 116.117C311.453 117.18 310.484 118.008 309.328 118.602C308.188 119.18 306.867 119.469 305.367 119.469C304.117 119.469 302.969 119.297 301.922 118.953C300.891 118.594 300 118.039 299.25 117.289C298.5 116.523 297.914 115.547 297.492 114.359C297.086 113.156 296.883 111.719 296.883 110.047V93.6406H304.781V110.094C304.781 110.656 304.852 111.141 304.992 111.547C305.133 111.953 305.336 112.297 305.602 112.578C305.867 112.844 306.195 113.047 306.586 113.188C306.992 113.312 307.453 113.375 307.969 113.375C309.156 113.375 310.086 113.125 310.758 112.625C311.43 112.125 311.898 111.445 312.164 110.586C312.445 109.727 312.586 108.758 312.586 107.68ZM331.875 99.0547V119H323.977V93.6406H331.383L331.875 99.0547ZM330.938 105.453L329.086 105.5C329.086 103.562 329.32 101.836 329.789 100.32C330.258 98.7891 330.922 97.4922 331.781 96.4297C332.641 95.3672 333.664 94.5625 334.852 94.0156C336.055 93.4531 337.391 93.1719 338.859 93.1719C340.031 93.1719 341.102 93.3438 342.07 93.6875C343.055 94.0312 343.898 94.5859 344.602 95.3516C345.32 96.1172 345.867 97.1328 346.242 98.3984C346.633 99.6484 346.828 101.195 346.828 103.039V119H338.883V103.016C338.883 102 338.742 101.227 338.461 100.695C338.18 100.148 337.773 99.7734 337.242 99.5703C336.711 99.3672 336.062 99.2656 335.297 99.2656C334.484 99.2656 333.797 99.4219 333.234 99.7344C332.672 100.047 332.219 100.484 331.875 101.047C331.547 101.594 331.305 102.242 331.148 102.992C331.008 103.742 330.938 104.562 330.938 105.453ZM363.773 108.195H357.047C357.047 106.82 357.141 105.609 357.328 104.562C357.531 103.5 357.875 102.547 358.359 101.703C358.844 100.859 359.5 100.078 360.328 99.3594C361.062 98.75 361.695 98.1641 362.227 97.6016C362.758 97.0391 363.164 96.4688 363.445 95.8906C363.727 95.3125 363.867 94.6953 363.867 94.0391C363.867 93.2266 363.75 92.5625 363.516 92.0469C363.297 91.5312 362.961 91.1484 362.508 90.8984C362.07 90.6328 361.516 90.5 360.844 90.5C360.297 90.5 359.781 90.6328 359.297 90.8984C358.828 91.1641 358.445 91.5781 358.148 92.1406C357.852 92.6875 357.688 93.4141 357.656 94.3203H349.711C349.758 91.9922 350.273 90.1016 351.258 88.6484C352.258 87.1797 353.586 86.1094 355.242 85.4375C356.914 84.75 358.781 84.4062 360.844 84.4062C363.125 84.4062 365.086 84.7578 366.727 85.4609C368.367 86.1641 369.625 87.2109 370.5 88.6016C371.375 89.9766 371.812 91.6719 371.812 93.6875C371.812 95.0312 371.555 96.2031 371.039 97.2031C370.539 98.1875 369.859 99.1094 369 99.9688C368.156 100.812 367.211 101.719 366.164 102.688C365.258 103.484 364.641 104.297 364.312 105.125C363.984 105.938 363.805 106.961 363.773 108.195ZM356.086 115.32C356.086 114.195 356.492 113.258 357.305 112.508C358.117 111.742 359.172 111.359 360.469 111.359C361.766 111.359 362.82 111.742 363.633 112.508C364.445 113.258 364.852 114.195 364.852 115.32C364.852 116.445 364.445 117.391 363.633 118.156C362.82 118.906 361.766 119.281 360.469 119.281C359.172 119.281 358.117 118.906 357.305 118.156C356.492 117.391 356.086 116.445 356.086 115.32Z" fill="black"/>
<path d="M1134 0H1348C1356.28 0 1363 6.71573 1363 15V148C1363 156.284 1356.28 163 1348 163H1134V0Z" fill="#E87A00"/>
<path d="M1260.62 78.8847C1263.81 78.8847 1266.93 79.805 1269.59 81.5293C1272.25 83.2536 1274.32 85.7044 1275.54 88.5718C1276.76 91.4391 1277.08 94.5943 1276.46 97.6383C1275.84 100.682 1274.3 103.478 1272.04 105.673C1269.78 107.868 1266.9 109.362 1263.77 109.968C1260.63 110.573 1257.39 110.262 1254.43 109.075C1251.48 107.887 1248.96 105.876 1247.18 103.295C1245.41 100.714 1244.46 97.6806 1244.46 94.5769C1244.46 90.4151 1246.16 86.4237 1249.19 83.4808C1252.22 80.538 1256.33 78.8847 1260.62 78.8847ZM1260.62 73.6539C1256.36 73.6539 1252.19 74.881 1248.65 77.1801C1245.11 79.4791 1242.35 82.7469 1240.72 86.57C1239.09 90.3932 1238.66 94.6001 1239.49 98.6588C1240.32 102.717 1242.37 106.446 1245.39 109.372C1248.4 112.298 1252.24 114.291 1256.41 115.098C1260.59 115.905 1264.92 115.491 1268.86 113.907C1272.79 112.324 1276.16 109.642 1278.52 106.201C1280.89 102.76 1282.15 98.7151 1282.15 94.5769C1282.15 89.0278 1279.88 83.706 1275.85 79.7821C1271.81 75.8583 1266.33 73.6539 1260.62 73.6539Z" fill="white"/>
<path d="M1274.08 47.5H1220.23C1218.8 47.5 1217.43 48.0511 1216.42 49.0321C1215.41 50.013 1214.85 51.3435 1214.85 52.7307V105.038C1214.85 106.426 1215.41 107.756 1216.42 108.737C1217.43 109.718 1218.8 110.269 1220.23 110.269H1231V105.038H1220.23V68.423H1279.46V52.7307C1279.46 51.3435 1278.89 50.013 1277.88 49.0321C1276.87 48.0511 1275.5 47.5 1274.08 47.5ZM1220.23 63.1922V52.7307H1274.08V63.1922H1220.23Z" fill="white"/>
<path d="M1255.23 86.731V102.423L1268.69 94.5771L1255.23 86.731Z" fill="white"/>
</svg>
