<svg width="1363" height="163" viewBox="0 0 1363 163" fill="none" xmlns="http://www.w3.org/2000/svg">
<path d="M0 15C0 6.71573 6.71573 0 15 0H37V163H15C6.71573 163 0 156.284 0 148V15Z" fill="#424242"/>
<rect width="1097" height="163" transform="translate(37)" fill="#F0F0F0"/>
<path d="M102.152 43.9375V61H98.6484V43.9375H102.152ZM107.402 43.9375V46.6914H93.4805V43.9375H107.402ZM111.75 51.0859V61H108.375V48.3203H111.551L111.75 51.0859ZM115.57 48.2383L115.512 51.3672C115.348 51.3438 115.148 51.3242 114.914 51.3086C114.688 51.2852 114.48 51.2734 114.293 51.2734C113.816 51.2734 113.402 51.3359 113.051 51.4609C112.707 51.5781 112.418 51.7539 112.184 51.9883C111.957 52.2227 111.785 52.5078 111.668 52.8438C111.559 53.1797 111.496 53.5625 111.48 53.9922L110.801 53.7812C110.801 52.9609 110.883 52.207 111.047 51.5195C111.211 50.8242 111.449 50.2188 111.762 49.7031C112.082 49.1875 112.473 48.7891 112.934 48.5078C113.395 48.2266 113.922 48.0859 114.516 48.0859C114.703 48.0859 114.895 48.1016 115.09 48.1328C115.285 48.1562 115.445 48.1914 115.57 48.2383ZM122.766 61.2344C121.781 61.2344 120.898 61.0781 120.117 60.7656C119.336 60.4453 118.672 60.0039 118.125 59.4414C117.586 58.8789 117.172 58.2266 116.883 57.4844C116.594 56.7344 116.449 55.9375 116.449 55.0938V54.625C116.449 53.6641 116.586 52.7852 116.859 51.9883C117.133 51.1914 117.523 50.5 118.031 49.9141C118.547 49.3281 119.172 48.8789 119.906 48.5664C120.641 48.2461 121.469 48.0859 122.391 48.0859C123.289 48.0859 124.086 48.2344 124.781 48.5312C125.477 48.8281 126.059 49.25 126.527 49.7969C127.004 50.3438 127.363 51 127.605 51.7656C127.848 52.5234 127.969 53.3672 127.969 54.2969V55.7031H117.891V53.4531H124.652V53.1953C124.652 52.7266 124.566 52.3086 124.395 51.9414C124.23 51.5664 123.98 51.2695 123.645 51.0508C123.309 50.832 122.879 50.7227 122.355 50.7227C121.91 50.7227 121.527 50.8203 121.207 51.0156C120.887 51.2109 120.625 51.4844 120.422 51.8359C120.227 52.1875 120.078 52.6016 119.977 53.0781C119.883 53.5469 119.836 54.0625 119.836 54.625V55.0938C119.836 55.6016 119.906 56.0703 120.047 56.5C120.195 56.9297 120.402 57.3008 120.668 57.6133C120.941 57.9258 121.27 58.168 121.652 58.3398C122.043 58.5117 122.484 58.5977 122.977 58.5977C123.586 58.5977 124.152 58.4805 124.676 58.2461C125.207 58.0039 125.664 57.6406 126.047 57.1562L127.688 58.9375C127.422 59.3203 127.059 59.6875 126.598 60.0391C126.145 60.3906 125.598 60.6797 124.957 60.9062C124.316 61.125 123.586 61.2344 122.766 61.2344ZM133.266 42.9883V61H129.891V42.9883H133.266ZM141.258 48.3203L135.75 54.6016L132.797 57.5898L131.566 55.1523L133.91 52.1758L137.203 48.3203H141.258ZM137.754 61L134.004 55.1406L136.336 53.1016L141.645 61H137.754ZM146.086 42.9883V61H142.711V42.9883H146.086ZM154.078 48.3203L148.57 54.6016L145.617 57.5898L144.387 55.1523L146.73 52.1758L150.023 48.3203H154.078ZM150.574 61L146.824 55.1406L149.156 53.1016L154.465 61H150.574ZM161.133 61.2344C160.148 61.2344 159.266 61.0781 158.484 60.7656C157.703 60.4453 157.039 60.0039 156.492 59.4414C155.953 58.8789 155.539 58.2266 155.25 57.4844C154.961 56.7344 154.816 55.9375 154.816 55.0938V54.625C154.816 53.6641 154.953 52.7852 155.227 51.9883C155.5 51.1914 155.891 50.5 156.398 49.9141C156.914 49.3281 157.539 48.8789 158.273 48.5664C159.008 48.2461 159.836 48.0859 160.758 48.0859C161.656 48.0859 162.453 48.2344 163.148 48.5312C163.844 48.8281 164.426 49.25 164.895 49.7969C165.371 50.3438 165.73 51 165.973 51.7656C166.215 52.5234 166.336 53.3672 166.336 54.2969V55.7031H156.258V53.4531H163.02V53.1953C163.02 52.7266 162.934 52.3086 162.762 51.9414C162.598 51.5664 162.348 51.2695 162.012 51.0508C161.676 50.832 161.246 50.7227 160.723 50.7227C160.277 50.7227 159.895 50.8203 159.574 51.0156C159.254 51.2109 158.992 51.4844 158.789 51.8359C158.594 52.1875 158.445 52.6016 158.344 53.0781C158.25 53.5469 158.203 54.0625 158.203 54.625V55.0938C158.203 55.6016 158.273 56.0703 158.414 56.5C158.562 56.9297 158.77 57.3008 159.035 57.6133C159.309 57.9258 159.637 58.168 160.02 58.3398C160.41 58.5117 160.852 58.5977 161.344 58.5977C161.953 58.5977 162.52 58.4805 163.043 58.2461C163.574 58.0039 164.031 57.6406 164.414 57.1562L166.055 58.9375C165.789 59.3203 165.426 59.6875 164.965 60.0391C164.512 60.3906 163.965 60.6797 163.324 60.9062C162.684 61.125 161.953 61.2344 161.133 61.2344ZM171.633 51.0859V61H168.258V48.3203H171.434L171.633 51.0859ZM175.453 48.2383L175.395 51.3672C175.23 51.3438 175.031 51.3242 174.797 51.3086C174.57 51.2852 174.363 51.2734 174.176 51.2734C173.699 51.2734 173.285 51.3359 172.934 51.4609C172.59 51.5781 172.301 51.7539 172.066 51.9883C171.84 52.2227 171.668 52.5078 171.551 52.8438C171.441 53.1797 171.379 53.5625 171.363 53.9922L170.684 53.7812C170.684 52.9609 170.766 52.207 170.93 51.5195C171.094 50.8242 171.332 50.2188 171.645 49.7031C171.965 49.1875 172.355 48.7891 172.816 48.5078C173.277 48.2266 173.805 48.0859 174.398 48.0859C174.586 48.0859 174.777 48.1016 174.973 48.1328C175.168 48.1562 175.328 48.1914 175.453 48.2383ZM190.23 43.9375V61H186.727V43.9375H190.23ZM195.48 43.9375V46.6914H181.559V43.9375H195.48ZM202.336 58.1406V52.4922C202.336 52.0859 202.27 51.7383 202.137 51.4492C202.004 51.1523 201.797 50.9219 201.516 50.7578C201.242 50.5938 200.887 50.5117 200.449 50.5117C200.074 50.5117 199.75 50.5781 199.477 50.7109C199.203 50.8359 198.992 51.0195 198.844 51.2617C198.695 51.4961 198.621 51.7734 198.621 52.0938H195.246C195.246 51.5547 195.371 51.043 195.621 50.5586C195.871 50.0742 196.234 49.6484 196.711 49.2812C197.188 48.9062 197.754 48.6133 198.41 48.4023C199.074 48.1914 199.816 48.0859 200.637 48.0859C201.621 48.0859 202.496 48.25 203.262 48.5781C204.027 48.9062 204.629 49.3984 205.066 50.0547C205.512 50.7109 205.734 51.5312 205.734 52.5156V57.9414C205.734 58.6367 205.777 59.207 205.863 59.6523C205.949 60.0898 206.074 60.4727 206.238 60.8008V61H202.828C202.664 60.6562 202.539 60.2266 202.453 59.7109C202.375 59.1875 202.336 58.6641 202.336 58.1406ZM202.781 53.2773L202.805 55.1875H200.918C200.473 55.1875 200.086 55.2383 199.758 55.3398C199.43 55.4414 199.16 55.5859 198.949 55.7734C198.738 55.9531 198.582 56.1641 198.48 56.4062C198.387 56.6484 198.34 56.9141 198.34 57.2031C198.34 57.4922 198.406 57.7539 198.539 57.9883C198.672 58.2148 198.863 58.3945 199.113 58.5273C199.363 58.6523 199.656 58.7148 199.992 58.7148C200.5 58.7148 200.941 58.6133 201.316 58.4102C201.691 58.207 201.98 57.957 202.184 57.6602C202.395 57.3633 202.504 57.082 202.512 56.8164L203.402 58.2461C203.277 58.5664 203.105 58.8984 202.887 59.2422C202.676 59.5859 202.406 59.9102 202.078 60.2148C201.75 60.5117 201.355 60.7578 200.895 60.9531C200.434 61.1406 199.887 61.2344 199.254 61.2344C198.449 61.2344 197.719 61.0742 197.062 60.7539C196.414 60.4258 195.898 59.9766 195.516 59.4062C195.141 58.8281 194.953 58.1719 194.953 57.4375C194.953 56.7734 195.078 56.1836 195.328 55.668C195.578 55.1523 195.945 54.7188 196.43 54.3672C196.922 54.0078 197.535 53.7383 198.27 53.5586C199.004 53.3711 199.855 53.2773 200.824 53.2773H202.781ZM211.898 43V61H208.512V43H211.898ZM220.523 61.2344C219.539 61.2344 218.656 61.0781 217.875 60.7656C217.094 60.4453 216.43 60.0039 215.883 59.4414C215.344 58.8789 214.93 58.2266 214.641 57.4844C214.352 56.7344 214.207 55.9375 214.207 55.0938V54.625C214.207 53.6641 214.344 52.7852 214.617 51.9883C214.891 51.1914 215.281 50.5 215.789 49.9141C216.305 49.3281 216.93 48.8789 217.664 48.5664C218.398 48.2461 219.227 48.0859 220.148 48.0859C221.047 48.0859 221.844 48.2344 222.539 48.5312C223.234 48.8281 223.816 49.25 224.285 49.7969C224.762 50.3438 225.121 51 225.363 51.7656C225.605 52.5234 225.727 53.3672 225.727 54.2969V55.7031H215.648V53.4531H222.41V53.1953C222.41 52.7266 222.324 52.3086 222.152 51.9414C221.988 51.5664 221.738 51.2695 221.402 51.0508C221.066 50.832 220.637 50.7227 220.113 50.7227C219.668 50.7227 219.285 50.8203 218.965 51.0156C218.645 51.2109 218.383 51.4844 218.18 51.8359C217.984 52.1875 217.836 52.6016 217.734 53.0781C217.641 53.5469 217.594 54.0625 217.594 54.625V55.0938C217.594 55.6016 217.664 56.0703 217.805 56.5C217.953 56.9297 218.16 57.3008 218.426 57.6133C218.699 57.9258 219.027 58.168 219.41 58.3398C219.801 58.5117 220.242 58.5977 220.734 58.5977C221.344 58.5977 221.91 58.4805 222.434 58.2461C222.965 58.0039 223.422 57.6406 223.805 57.1562L225.445 58.9375C225.18 59.3203 224.816 59.6875 224.355 60.0391C223.902 60.3906 223.355 60.6797 222.715 60.9062C222.074 61.125 221.344 61.2344 220.523 61.2344ZM234.504 57.4961C234.504 57.2539 234.434 57.0352 234.293 56.8398C234.152 56.6445 233.891 56.4648 233.508 56.3008C233.133 56.1289 232.59 55.9727 231.879 55.832C231.238 55.6914 230.641 55.5156 230.086 55.3047C229.539 55.0859 229.062 54.8242 228.656 54.5195C228.258 54.2148 227.945 53.8555 227.719 53.4414C227.492 53.0195 227.379 52.5391 227.379 52C227.379 51.4688 227.492 50.9688 227.719 50.5C227.953 50.0312 228.285 49.6172 228.715 49.2578C229.152 48.8906 229.684 48.6055 230.309 48.4023C230.941 48.1914 231.652 48.0859 232.441 48.0859C233.543 48.0859 234.488 48.2617 235.277 48.6133C236.074 48.9648 236.684 49.4492 237.105 50.0664C237.535 50.6758 237.75 51.3711 237.75 52.1523H234.375C234.375 51.8242 234.305 51.5312 234.164 51.2734C234.031 51.0078 233.82 50.8008 233.531 50.6523C233.25 50.4961 232.883 50.418 232.43 50.418C232.055 50.418 231.73 50.4844 231.457 50.6172C231.184 50.7422 230.973 50.9141 230.824 51.1328C230.684 51.3438 230.613 51.5781 230.613 51.8359C230.613 52.0312 230.652 52.207 230.73 52.3633C230.816 52.5117 230.953 52.6484 231.141 52.7734C231.328 52.8984 231.57 53.0156 231.867 53.125C232.172 53.2266 232.547 53.3203 232.992 53.4062C233.906 53.5938 234.723 53.8398 235.441 54.1445C236.16 54.4414 236.73 54.8477 237.152 55.3633C237.574 55.8711 237.785 56.5391 237.785 57.3672C237.785 57.9297 237.66 58.4453 237.41 58.9141C237.16 59.3828 236.801 59.793 236.332 60.1445C235.863 60.4883 235.301 60.7578 234.645 60.9531C233.996 61.1406 233.266 61.2344 232.453 61.2344C231.273 61.2344 230.273 61.0234 229.453 60.6016C228.641 60.1797 228.023 59.6445 227.602 58.9961C227.188 58.3398 226.98 57.668 226.98 56.9805H230.18C230.195 57.4414 230.312 57.8125 230.531 58.0938C230.758 58.375 231.043 58.5781 231.387 58.7031C231.738 58.8281 232.117 58.8906 232.523 58.8906C232.961 58.8906 233.324 58.832 233.613 58.7148C233.902 58.5898 234.121 58.4258 234.27 58.2227C234.426 58.0117 234.504 57.7695 234.504 57.4961Z" fill="#888888"/>
<path d="M112.125 84.875V119H103.898V84.875H112.125ZM122.391 84.875V91.2266H93.8672V84.875H122.391ZM135.68 119.469C133.617 119.469 131.773 119.148 130.148 118.508C128.523 117.852 127.148 116.953 126.023 115.812C124.914 114.672 124.062 113.359 123.469 111.875C122.891 110.391 122.602 108.82 122.602 107.164V106.273C122.602 104.414 122.859 102.695 123.375 101.117C123.891 99.5234 124.656 98.1328 125.672 96.9453C126.688 95.7578 127.961 94.8359 129.492 94.1797C131.023 93.5078 132.805 93.1719 134.836 93.1719C136.633 93.1719 138.242 93.4609 139.664 94.0391C141.086 94.6172 142.289 95.4453 143.273 96.5234C144.273 97.6016 145.031 98.9062 145.547 100.438C146.078 101.969 146.344 103.688 146.344 105.594V108.805H125.625V103.859H138.633V103.25C138.648 102.406 138.5 101.688 138.188 101.094C137.891 100.5 137.453 100.047 136.875 99.7344C136.297 99.4219 135.594 99.2656 134.766 99.2656C133.906 99.2656 133.195 99.4531 132.633 99.8281C132.086 100.203 131.656 100.719 131.344 101.375C131.047 102.016 130.836 102.758 130.711 103.602C130.586 104.445 130.523 105.336 130.523 106.273V107.164C130.523 108.102 130.648 108.953 130.898 109.719C131.164 110.484 131.539 111.141 132.023 111.688C132.523 112.219 133.117 112.633 133.805 112.93C134.508 113.227 135.305 113.375 136.195 113.375C137.273 113.375 138.336 113.172 139.383 112.766C140.43 112.359 141.328 111.688 142.078 110.75L145.664 115.016C145.148 115.75 144.414 116.461 143.461 117.148C142.523 117.836 141.398 118.398 140.086 118.836C138.773 119.258 137.305 119.469 135.68 119.469ZM160.266 113.375C161 113.375 161.625 113.242 162.141 112.977C162.672 112.695 163.07 112.305 163.336 111.805C163.617 111.289 163.75 110.672 163.734 109.953H171.164C171.18 111.859 170.711 113.531 169.758 114.969C168.82 116.391 167.539 117.5 165.914 118.297C164.305 119.078 162.484 119.469 160.453 119.469C158.469 119.469 156.734 119.148 155.25 118.508C153.766 117.852 152.523 116.945 151.523 115.789C150.539 114.617 149.797 113.25 149.297 111.688C148.812 110.125 148.57 108.43 148.57 106.602V106.062C148.57 104.234 148.812 102.539 149.297 100.977C149.797 99.3984 150.539 98.0312 151.523 96.875C152.523 95.7031 153.758 94.7969 155.227 94.1562C156.711 93.5 158.438 93.1719 160.406 93.1719C162.516 93.1719 164.375 93.5703 165.984 94.3672C167.609 95.1641 168.883 96.3203 169.805 97.8359C170.727 99.3516 171.18 101.188 171.164 103.344H163.734C163.75 102.578 163.633 101.891 163.383 101.281C163.133 100.672 162.742 100.188 162.211 99.8281C161.695 99.4531 161.031 99.2656 160.219 99.2656C159.406 99.2656 158.75 99.4453 158.25 99.8047C157.75 100.164 157.367 100.664 157.102 101.305C156.852 101.93 156.68 102.648 156.586 103.461C156.508 104.273 156.469 105.141 156.469 106.062V106.602C156.469 107.539 156.508 108.422 156.586 109.25C156.68 110.062 156.859 110.781 157.125 111.406C157.391 112.016 157.773 112.5 158.273 112.859C158.773 113.203 159.438 113.375 160.266 113.375ZM182.273 83V119H174.375V83H182.273ZM181.336 105.453L179.484 105.5C179.484 103.719 179.703 102.078 180.141 100.578C180.578 99.0781 181.203 97.7734 182.016 96.6641C182.828 95.5547 183.805 94.6953 184.945 94.0859C186.086 93.4766 187.352 93.1719 188.742 93.1719C189.992 93.1719 191.133 93.3516 192.164 93.7109C193.211 94.0703 194.109 94.6484 194.859 95.4453C195.625 96.2422 196.211 97.2812 196.617 98.5625C197.039 99.8438 197.25 101.406 197.25 103.25V119H189.305V103.203C189.305 102.172 189.156 101.375 188.859 100.812C188.578 100.234 188.172 99.8359 187.641 99.6172C187.109 99.3828 186.461 99.2656 185.695 99.2656C184.773 99.2656 184.023 99.4219 183.445 99.7344C182.867 100.047 182.422 100.484 182.109 101.047C181.812 101.594 181.609 102.242 181.5 102.992C181.391 103.742 181.336 104.562 181.336 105.453ZM231.539 109.93C231.539 109.398 231.461 108.922 231.305 108.5C231.148 108.062 230.859 107.656 230.438 107.281C230.016 106.906 229.406 106.531 228.609 106.156C227.828 105.766 226.797 105.359 225.516 104.938C224.016 104.438 222.57 103.875 221.18 103.25C219.789 102.609 218.547 101.867 217.453 101.023C216.359 100.164 215.492 99.1641 214.852 98.0234C214.211 96.8672 213.891 95.5234 213.891 93.9922C213.891 92.5234 214.219 91.2031 214.875 90.0312C215.531 88.8438 216.445 87.8359 217.617 87.0078C218.805 86.1641 220.195 85.5234 221.789 85.0859C223.383 84.6328 225.125 84.4062 227.016 84.4062C229.516 84.4062 231.719 84.8438 233.625 85.7188C235.547 86.5781 237.047 87.8047 238.125 89.3984C239.219 90.9766 239.766 92.8438 239.766 95H231.586C231.586 94.1406 231.406 93.3828 231.047 92.7266C230.703 92.0703 230.18 91.5547 229.477 91.1797C228.773 90.8047 227.891 90.6172 226.828 90.6172C225.797 90.6172 224.93 90.7734 224.227 91.0859C223.523 91.3984 222.992 91.8203 222.633 92.3516C222.273 92.8672 222.094 93.4375 222.094 94.0625C222.094 94.5781 222.234 95.0469 222.516 95.4688C222.812 95.875 223.227 96.2578 223.758 96.6172C224.305 96.9766 224.961 97.3203 225.727 97.6484C226.508 97.9766 227.383 98.2969 228.352 98.6094C230.164 99.1875 231.773 99.8359 233.18 100.555C234.602 101.258 235.797 102.062 236.766 102.969C237.75 103.859 238.492 104.875 238.992 106.016C239.508 107.156 239.766 108.445 239.766 109.883C239.766 111.414 239.469 112.773 238.875 113.961C238.281 115.148 237.43 116.156 236.32 116.984C235.211 117.797 233.883 118.414 232.336 118.836C230.789 119.258 229.062 119.469 227.156 119.469C225.406 119.469 223.68 119.25 221.977 118.812C220.289 118.359 218.758 117.672 217.383 116.75C216.008 115.812 214.906 114.617 214.078 113.164C213.266 111.695 212.859 109.953 212.859 107.938H221.109C221.109 108.938 221.242 109.781 221.508 110.469C221.773 111.156 222.164 111.711 222.68 112.133C223.195 112.539 223.828 112.836 224.578 113.023C225.328 113.195 226.188 113.281 227.156 113.281C228.203 113.281 229.047 113.133 229.688 112.836C230.328 112.523 230.797 112.117 231.094 111.617C231.391 111.102 231.539 110.539 231.539 109.93ZM256.992 93.6406V99.125H241.711V93.6406H256.992ZM244.922 87.3359H252.82V110.727C252.82 111.398 252.898 111.922 253.055 112.297C253.211 112.656 253.477 112.914 253.852 113.07C254.242 113.211 254.758 113.281 255.398 113.281C255.852 113.281 256.227 113.273 256.523 113.258C256.82 113.227 257.102 113.188 257.367 113.141V118.789C256.695 119.008 255.992 119.172 255.258 119.281C254.523 119.406 253.742 119.469 252.914 119.469C251.227 119.469 249.781 119.203 248.578 118.672C247.391 118.141 246.484 117.305 245.859 116.164C245.234 115.023 244.922 113.539 244.922 111.711V87.3359ZM273.305 112.625V102.172C273.305 101.453 273.203 100.836 273 100.32C272.797 99.8047 272.477 99.4062 272.039 99.125C271.602 98.8281 271.016 98.6797 270.281 98.6797C269.688 98.6797 269.18 98.7812 268.758 98.9844C268.336 99.1875 268.016 99.4922 267.797 99.8984C267.578 100.305 267.469 100.82 267.469 101.445H259.57C259.57 100.273 259.828 99.1875 260.344 98.1875C260.875 97.1719 261.625 96.2891 262.594 95.5391C263.578 94.7891 264.75 94.2109 266.109 93.8047C267.484 93.3828 269.016 93.1719 270.703 93.1719C272.719 93.1719 274.516 93.5078 276.094 94.1797C277.688 94.8516 278.945 95.8594 279.867 97.2031C280.789 98.5312 281.25 100.203 281.25 102.219V112.602C281.25 114.258 281.344 115.516 281.531 116.375C281.719 117.219 281.984 117.961 282.328 118.602V119H274.406C274.031 118.219 273.75 117.266 273.562 116.141C273.391 115 273.305 113.828 273.305 112.625ZM274.266 103.508L274.312 107.727H270.82C270.086 107.727 269.461 107.828 268.945 108.031C268.445 108.234 268.039 108.516 267.727 108.875C267.43 109.219 267.211 109.609 267.07 110.047C266.945 110.484 266.883 110.945 266.883 111.43C266.883 111.898 266.992 112.32 267.211 112.695C267.445 113.055 267.758 113.336 268.148 113.539C268.539 113.742 268.977 113.844 269.461 113.844C270.336 113.844 271.078 113.68 271.688 113.352C272.312 113.008 272.789 112.594 273.117 112.109C273.445 111.625 273.609 111.172 273.609 110.75L275.344 113.984C275.031 114.609 274.672 115.242 274.266 115.883C273.875 116.523 273.383 117.117 272.789 117.664C272.211 118.195 271.5 118.633 270.656 118.977C269.812 119.305 268.789 119.469 267.586 119.469C266.023 119.469 264.586 119.148 263.273 118.508C261.977 117.867 260.938 116.977 260.156 115.836C259.375 114.68 258.984 113.352 258.984 111.852C258.984 110.539 259.219 109.367 259.688 108.336C260.172 107.305 260.898 106.43 261.867 105.711C262.836 104.992 264.07 104.445 265.57 104.07C267.07 103.695 268.836 103.508 270.867 103.508H274.266ZM296.344 113.375C297.078 113.375 297.703 113.242 298.219 112.977C298.75 112.695 299.148 112.305 299.414 111.805C299.695 111.289 299.828 110.672 299.812 109.953H307.242C307.258 111.859 306.789 113.531 305.836 114.969C304.898 116.391 303.617 117.5 301.992 118.297C300.383 119.078 298.562 119.469 296.531 119.469C294.547 119.469 292.812 119.148 291.328 118.508C289.844 117.852 288.602 116.945 287.602 115.789C286.617 114.617 285.875 113.25 285.375 111.688C284.891 110.125 284.648 108.43 284.648 106.602V106.062C284.648 104.234 284.891 102.539 285.375 100.977C285.875 99.3984 286.617 98.0312 287.602 96.875C288.602 95.7031 289.836 94.7969 291.305 94.1562C292.789 93.5 294.516 93.1719 296.484 93.1719C298.594 93.1719 300.453 93.5703 302.062 94.3672C303.688 95.1641 304.961 96.3203 305.883 97.8359C306.805 99.3516 307.258 101.188 307.242 103.344H299.812C299.828 102.578 299.711 101.891 299.461 101.281C299.211 100.672 298.82 100.188 298.289 99.8281C297.773 99.4531 297.109 99.2656 296.297 99.2656C295.484 99.2656 294.828 99.4453 294.328 99.8047C293.828 100.164 293.445 100.664 293.18 101.305C292.93 101.93 292.758 102.648 292.664 103.461C292.586 104.273 292.547 105.141 292.547 106.062V106.602C292.547 107.539 292.586 108.422 292.664 109.25C292.758 110.062 292.938 110.781 293.203 111.406C293.469 112.016 293.852 112.5 294.352 112.859C294.852 113.203 295.516 113.375 296.344 113.375ZM318.586 82.9766V119H310.688V82.9766H318.586ZM334.805 93.6406L323.789 106.555L318.023 112.32L314.578 107.305L319.383 101.047L325.336 93.6406H334.805ZM326.344 119L319.57 107.445L325.406 103.297L335.391 119H326.344ZM350.156 111.875C350.156 111.438 350.008 111.062 349.711 110.75C349.43 110.422 348.93 110.125 348.211 109.859C347.492 109.578 346.484 109.297 345.188 109.016C343.953 108.75 342.789 108.398 341.695 107.961C340.617 107.523 339.672 106.992 338.859 106.367C338.047 105.742 337.406 105 336.938 104.141C336.484 103.281 336.258 102.297 336.258 101.188C336.258 100.109 336.484 99.0938 336.938 98.1406C337.406 97.1719 338.086 96.3203 338.977 95.5859C339.883 94.8359 340.984 94.25 342.281 93.8281C343.578 93.3906 345.055 93.1719 346.711 93.1719C348.992 93.1719 350.961 93.5234 352.617 94.2266C354.273 94.9141 355.547 95.8828 356.438 97.1328C357.344 98.3672 357.797 99.7969 357.797 101.422H349.898C349.898 100.781 349.789 100.234 349.57 99.7812C349.367 99.3281 349.031 98.9844 348.562 98.75C348.094 98.5 347.469 98.375 346.688 98.375C346.141 98.375 345.641 98.4766 345.188 98.6797C344.75 98.8828 344.398 99.1641 344.133 99.5234C343.867 99.8828 343.734 100.305 343.734 100.789C343.734 101.133 343.812 101.445 343.969 101.727C344.141 101.992 344.398 102.242 344.742 102.477C345.086 102.695 345.523 102.898 346.055 103.086C346.586 103.258 347.227 103.414 347.977 103.555C349.68 103.867 351.273 104.312 352.758 104.891C354.242 105.469 355.445 106.289 356.367 107.352C357.305 108.414 357.773 109.844 357.773 111.641C357.773 112.766 357.516 113.805 357 114.758C356.484 115.695 355.742 116.523 354.773 117.242C353.805 117.945 352.641 118.492 351.281 118.883C349.922 119.273 348.391 119.469 346.688 119.469C344.266 119.469 342.219 119.039 340.547 118.18C338.875 117.305 337.609 116.211 336.75 114.898C335.906 113.57 335.484 112.227 335.484 110.867H342.844C342.875 111.648 343.062 112.289 343.406 112.789C343.766 113.289 344.242 113.656 344.836 113.891C345.43 114.125 346.117 114.242 346.898 114.242C347.617 114.242 348.211 114.141 348.68 113.938C349.164 113.734 349.531 113.461 349.781 113.117C350.031 112.758 350.156 112.344 350.156 111.875Z" fill="black"/>
<path d="M1134 0H1348C1356.28 0 1363 6.71573 1363 15V148C1363 156.284 1356.28 163 1348 163H1134V0Z" fill="#E87A00"/>
<path fill-rule="evenodd" clip-rule="evenodd" d="M1219.98 53C1219.85 53 1219.73 53.0527 1219.64 53.1464C1219.55 53.2402 1219.5 53.3674 1219.5 53.5V109.5C1219.5 109.633 1219.55 109.76 1219.64 109.854C1219.73 109.947 1219.85 110 1219.98 110H1277.02C1277.15 110 1277.27 109.947 1277.36 109.854C1277.45 109.76 1277.5 109.633 1277.5 109.5V64C1277.5 63.8674 1277.45 63.7402 1277.36 63.6464C1277.27 63.5527 1277.15 63.5 1277.02 63.5H1248.5C1247.65 63.5 1246.84 63.1045 1246.29 62.4206L1238.77 53H1219.98ZM1215.58 48.9038C1216.74 47.6848 1218.33 47 1219.98 47H1240.11C1240.97 47 1241.77 47.3955 1242.32 48.0794L1249.85 57.5H1277.02C1278.67 57.5 1280.26 58.1848 1281.42 59.4038C1282.59 60.6228 1283.25 62.2761 1283.25 64V109.5C1283.25 111.224 1282.59 112.877 1281.42 114.096C1280.26 115.315 1278.67 116 1277.02 116H1219.98C1218.33 116 1216.74 115.315 1215.58 114.096C1214.41 112.877 1213.75 111.224 1213.75 109.5V53.5C1213.75 51.7761 1214.41 50.1228 1215.58 48.9038Z" fill="white"/>
<path fill-rule="evenodd" clip-rule="evenodd" d="M1244.16 75.5251C1245.47 76.892 1245.47 79.108 1244.16 80.4749L1238.15 86.75L1244.16 93.0251C1245.47 94.392 1245.47 96.608 1244.16 97.9749C1242.85 99.3417 1240.73 99.3417 1239.42 97.9749L1231.03 89.2249C1229.72 87.858 1229.72 85.642 1231.03 84.2751L1239.42 75.5251C1240.73 74.1583 1242.85 74.1583 1244.16 75.5251Z" fill="white"/>
<path fill-rule="evenodd" clip-rule="evenodd" d="M1252.12 97.9749C1250.81 96.608 1250.81 94.392 1252.12 93.0251L1258.13 86.75L1252.12 80.4749C1250.81 79.108 1250.81 76.892 1252.12 75.5251C1253.43 74.1583 1255.55 74.1583 1256.86 75.5251L1265.25 84.2751C1266.56 85.642 1266.56 87.858 1265.25 89.2249L1256.86 97.9749C1255.55 99.3417 1253.43 99.3417 1252.12 97.9749Z" fill="white"/>
</svg>
