<svg width="1363" height="163" viewBox="0 0 1363 163" fill="none" xmlns="http://www.w3.org/2000/svg">
<path d="M0 15C0 6.71573 6.71573 0 15 0H37V163H15C6.71573 163 0 156.284 0 148V15Z" fill="#424242"/>
<rect width="1097" height="163" transform="translate(37)" fill="#F0F0F0"/>
<path d="M102.152 43.9375V61H98.6484V43.9375H102.152ZM107.402 43.9375V46.6914H93.4805V43.9375H107.402ZM111.75 51.0859V61H108.375V48.3203H111.551L111.75 51.0859ZM115.57 48.2383L115.512 51.3672C115.348 51.3438 115.148 51.3242 114.914 51.3086C114.688 51.2852 114.48 51.2734 114.293 51.2734C113.816 51.2734 113.402 51.3359 113.051 51.4609C112.707 51.5781 112.418 51.7539 112.184 51.9883C111.957 52.2227 111.785 52.5078 111.668 52.8438C111.559 53.1797 111.496 53.5625 111.48 53.9922L110.801 53.7812C110.801 52.9609 110.883 52.207 111.047 51.5195C111.211 50.8242 111.449 50.2188 111.762 49.7031C112.082 49.1875 112.473 48.7891 112.934 48.5078C113.395 48.2266 113.922 48.0859 114.516 48.0859C114.703 48.0859 114.895 48.1016 115.09 48.1328C115.285 48.1562 115.445 48.1914 115.57 48.2383ZM122.766 61.2344C121.781 61.2344 120.898 61.0781 120.117 60.7656C119.336 60.4453 118.672 60.0039 118.125 59.4414C117.586 58.8789 117.172 58.2266 116.883 57.4844C116.594 56.7344 116.449 55.9375 116.449 55.0938V54.625C116.449 53.6641 116.586 52.7852 116.859 51.9883C117.133 51.1914 117.523 50.5 118.031 49.9141C118.547 49.3281 119.172 48.8789 119.906 48.5664C120.641 48.2461 121.469 48.0859 122.391 48.0859C123.289 48.0859 124.086 48.2344 124.781 48.5312C125.477 48.8281 126.059 49.25 126.527 49.7969C127.004 50.3438 127.363 51 127.605 51.7656C127.848 52.5234 127.969 53.3672 127.969 54.2969V55.7031H117.891V53.4531H124.652V53.1953C124.652 52.7266 124.566 52.3086 124.395 51.9414C124.23 51.5664 123.98 51.2695 123.645 51.0508C123.309 50.832 122.879 50.7227 122.355 50.7227C121.91 50.7227 121.527 50.8203 121.207 51.0156C120.887 51.2109 120.625 51.4844 120.422 51.8359C120.227 52.1875 120.078 52.6016 119.977 53.0781C119.883 53.5469 119.836 54.0625 119.836 54.625V55.0938C119.836 55.6016 119.906 56.0703 120.047 56.5C120.195 56.9297 120.402 57.3008 120.668 57.6133C120.941 57.9258 121.27 58.168 121.652 58.3398C122.043 58.5117 122.484 58.5977 122.977 58.5977C123.586 58.5977 124.152 58.4805 124.676 58.2461C125.207 58.0039 125.664 57.6406 126.047 57.1562L127.688 58.9375C127.422 59.3203 127.059 59.6875 126.598 60.0391C126.145 60.3906 125.598 60.6797 124.957 60.9062C124.316 61.125 123.586 61.2344 122.766 61.2344ZM133.266 42.9883V61H129.891V42.9883H133.266ZM141.258 48.3203L135.75 54.6016L132.797 57.5898L131.566 55.1523L133.91 52.1758L137.203 48.3203H141.258ZM137.754 61L134.004 55.1406L136.336 53.1016L141.645 61H137.754ZM146.086 42.9883V61H142.711V42.9883H146.086ZM154.078 48.3203L148.57 54.6016L145.617 57.5898L144.387 55.1523L146.73 52.1758L150.023 48.3203H154.078ZM150.574 61L146.824 55.1406L149.156 53.1016L154.465 61H150.574ZM161.133 61.2344C160.148 61.2344 159.266 61.0781 158.484 60.7656C157.703 60.4453 157.039 60.0039 156.492 59.4414C155.953 58.8789 155.539 58.2266 155.25 57.4844C154.961 56.7344 154.816 55.9375 154.816 55.0938V54.625C154.816 53.6641 154.953 52.7852 155.227 51.9883C155.5 51.1914 155.891 50.5 156.398 49.9141C156.914 49.3281 157.539 48.8789 158.273 48.5664C159.008 48.2461 159.836 48.0859 160.758 48.0859C161.656 48.0859 162.453 48.2344 163.148 48.5312C163.844 48.8281 164.426 49.25 164.895 49.7969C165.371 50.3438 165.73 51 165.973 51.7656C166.215 52.5234 166.336 53.3672 166.336 54.2969V55.7031H156.258V53.4531H163.02V53.1953C163.02 52.7266 162.934 52.3086 162.762 51.9414C162.598 51.5664 162.348 51.2695 162.012 51.0508C161.676 50.832 161.246 50.7227 160.723 50.7227C160.277 50.7227 159.895 50.8203 159.574 51.0156C159.254 51.2109 158.992 51.4844 158.789 51.8359C158.594 52.1875 158.445 52.6016 158.344 53.0781C158.25 53.5469 158.203 54.0625 158.203 54.625V55.0938C158.203 55.6016 158.273 56.0703 158.414 56.5C158.562 56.9297 158.77 57.3008 159.035 57.6133C159.309 57.9258 159.637 58.168 160.02 58.3398C160.41 58.5117 160.852 58.5977 161.344 58.5977C161.953 58.5977 162.52 58.4805 163.043 58.2461C163.574 58.0039 164.031 57.6406 164.414 57.1562L166.055 58.9375C165.789 59.3203 165.426 59.6875 164.965 60.0391C164.512 60.3906 163.965 60.6797 163.324 60.9062C162.684 61.125 161.953 61.2344 161.133 61.2344ZM171.633 51.0859V61H168.258V48.3203H171.434L171.633 51.0859ZM175.453 48.2383L175.395 51.3672C175.23 51.3438 175.031 51.3242 174.797 51.3086C174.57 51.2852 174.363 51.2734 174.176 51.2734C173.699 51.2734 173.285 51.3359 172.934 51.4609C172.59 51.5781 172.301 51.7539 172.066 51.9883C171.84 52.2227 171.668 52.5078 171.551 52.8438C171.441 53.1797 171.379 53.5625 171.363 53.9922L170.684 53.7812C170.684 52.9609 170.766 52.207 170.93 51.5195C171.094 50.8242 171.332 50.2188 171.645 49.7031C171.965 49.1875 172.355 48.7891 172.816 48.5078C173.277 48.2266 173.805 48.0859 174.398 48.0859C174.586 48.0859 174.777 48.1016 174.973 48.1328C175.168 48.1562 175.328 48.1914 175.453 48.2383ZM190.23 43.9375V61H186.727V43.9375H190.23ZM195.48 43.9375V46.6914H181.559V43.9375H195.48ZM202.336 58.1406V52.4922C202.336 52.0859 202.27 51.7383 202.137 51.4492C202.004 51.1523 201.797 50.9219 201.516 50.7578C201.242 50.5938 200.887 50.5117 200.449 50.5117C200.074 50.5117 199.75 50.5781 199.477 50.7109C199.203 50.8359 198.992 51.0195 198.844 51.2617C198.695 51.4961 198.621 51.7734 198.621 52.0938H195.246C195.246 51.5547 195.371 51.043 195.621 50.5586C195.871 50.0742 196.234 49.6484 196.711 49.2812C197.188 48.9062 197.754 48.6133 198.41 48.4023C199.074 48.1914 199.816 48.0859 200.637 48.0859C201.621 48.0859 202.496 48.25 203.262 48.5781C204.027 48.9062 204.629 49.3984 205.066 50.0547C205.512 50.7109 205.734 51.5312 205.734 52.5156V57.9414C205.734 58.6367 205.777 59.207 205.863 59.6523C205.949 60.0898 206.074 60.4727 206.238 60.8008V61H202.828C202.664 60.6562 202.539 60.2266 202.453 59.7109C202.375 59.1875 202.336 58.6641 202.336 58.1406ZM202.781 53.2773L202.805 55.1875H200.918C200.473 55.1875 200.086 55.2383 199.758 55.3398C199.43 55.4414 199.16 55.5859 198.949 55.7734C198.738 55.9531 198.582 56.1641 198.48 56.4062C198.387 56.6484 198.34 56.9141 198.34 57.2031C198.34 57.4922 198.406 57.7539 198.539 57.9883C198.672 58.2148 198.863 58.3945 199.113 58.5273C199.363 58.6523 199.656 58.7148 199.992 58.7148C200.5 58.7148 200.941 58.6133 201.316 58.4102C201.691 58.207 201.98 57.957 202.184 57.6602C202.395 57.3633 202.504 57.082 202.512 56.8164L203.402 58.2461C203.277 58.5664 203.105 58.8984 202.887 59.2422C202.676 59.5859 202.406 59.9102 202.078 60.2148C201.75 60.5117 201.355 60.7578 200.895 60.9531C200.434 61.1406 199.887 61.2344 199.254 61.2344C198.449 61.2344 197.719 61.0742 197.062 60.7539C196.414 60.4258 195.898 59.9766 195.516 59.4062C195.141 58.8281 194.953 58.1719 194.953 57.4375C194.953 56.7734 195.078 56.1836 195.328 55.668C195.578 55.1523 195.945 54.7188 196.43 54.3672C196.922 54.0078 197.535 53.7383 198.27 53.5586C199.004 53.3711 199.855 53.2773 200.824 53.2773H202.781ZM211.898 43V61H208.512V43H211.898ZM220.523 61.2344C219.539 61.2344 218.656 61.0781 217.875 60.7656C217.094 60.4453 216.43 60.0039 215.883 59.4414C215.344 58.8789 214.93 58.2266 214.641 57.4844C214.352 56.7344 214.207 55.9375 214.207 55.0938V54.625C214.207 53.6641 214.344 52.7852 214.617 51.9883C214.891 51.1914 215.281 50.5 215.789 49.9141C216.305 49.3281 216.93 48.8789 217.664 48.5664C218.398 48.2461 219.227 48.0859 220.148 48.0859C221.047 48.0859 221.844 48.2344 222.539 48.5312C223.234 48.8281 223.816 49.25 224.285 49.7969C224.762 50.3438 225.121 51 225.363 51.7656C225.605 52.5234 225.727 53.3672 225.727 54.2969V55.7031H215.648V53.4531H222.41V53.1953C222.41 52.7266 222.324 52.3086 222.152 51.9414C221.988 51.5664 221.738 51.2695 221.402 51.0508C221.066 50.832 220.637 50.7227 220.113 50.7227C219.668 50.7227 219.285 50.8203 218.965 51.0156C218.645 51.2109 218.383 51.4844 218.18 51.8359C217.984 52.1875 217.836 52.6016 217.734 53.0781C217.641 53.5469 217.594 54.0625 217.594 54.625V55.0938C217.594 55.6016 217.664 56.0703 217.805 56.5C217.953 56.9297 218.16 57.3008 218.426 57.6133C218.699 57.9258 219.027 58.168 219.41 58.3398C219.801 58.5117 220.242 58.5977 220.734 58.5977C221.344 58.5977 221.91 58.4805 222.434 58.2461C222.965 58.0039 223.422 57.6406 223.805 57.1562L225.445 58.9375C225.18 59.3203 224.816 59.6875 224.355 60.0391C223.902 60.3906 223.355 60.6797 222.715 60.9062C222.074 61.125 221.344 61.2344 220.523 61.2344ZM234.504 57.4961C234.504 57.2539 234.434 57.0352 234.293 56.8398C234.152 56.6445 233.891 56.4648 233.508 56.3008C233.133 56.1289 232.59 55.9727 231.879 55.832C231.238 55.6914 230.641 55.5156 230.086 55.3047C229.539 55.0859 229.062 54.8242 228.656 54.5195C228.258 54.2148 227.945 53.8555 227.719 53.4414C227.492 53.0195 227.379 52.5391 227.379 52C227.379 51.4688 227.492 50.9688 227.719 50.5C227.953 50.0312 228.285 49.6172 228.715 49.2578C229.152 48.8906 229.684 48.6055 230.309 48.4023C230.941 48.1914 231.652 48.0859 232.441 48.0859C233.543 48.0859 234.488 48.2617 235.277 48.6133C236.074 48.9648 236.684 49.4492 237.105 50.0664C237.535 50.6758 237.75 51.3711 237.75 52.1523H234.375C234.375 51.8242 234.305 51.5312 234.164 51.2734C234.031 51.0078 233.82 50.8008 233.531 50.6523C233.25 50.4961 232.883 50.418 232.43 50.418C232.055 50.418 231.73 50.4844 231.457 50.6172C231.184 50.7422 230.973 50.9141 230.824 51.1328C230.684 51.3438 230.613 51.5781 230.613 51.8359C230.613 52.0312 230.652 52.207 230.73 52.3633C230.816 52.5117 230.953 52.6484 231.141 52.7734C231.328 52.8984 231.57 53.0156 231.867 53.125C232.172 53.2266 232.547 53.3203 232.992 53.4062C233.906 53.5938 234.723 53.8398 235.441 54.1445C236.16 54.4414 236.73 54.8477 237.152 55.3633C237.574 55.8711 237.785 56.5391 237.785 57.3672C237.785 57.9297 237.66 58.4453 237.41 58.9141C237.16 59.3828 236.801 59.793 236.332 60.1445C235.863 60.4883 235.301 60.7578 234.645 60.9531C233.996 61.1406 233.266 61.2344 232.453 61.2344C231.273 61.2344 230.273 61.0234 229.453 60.6016C228.641 60.1797 228.023 59.6445 227.602 58.9961C227.188 58.3398 226.98 57.668 226.98 56.9805H230.18C230.195 57.4414 230.312 57.8125 230.531 58.0938C230.758 58.375 231.043 58.5781 231.387 58.7031C231.738 58.8281 232.117 58.8906 232.523 58.8906C232.961 58.8906 233.324 58.832 233.613 58.7148C233.902 58.5898 234.121 58.4258 234.27 58.2227C234.426 58.0117 234.504 57.7695 234.504 57.4961Z" fill="#888888"/>
<path d="M114.117 84.875H122.344V107.164C122.344 109.82 121.789 112.07 120.68 113.914C119.57 115.742 118.016 117.125 116.016 118.062C114.016 119 111.664 119.469 108.961 119.469C106.289 119.469 103.938 119 101.906 118.062C99.8906 117.125 98.3125 115.742 97.1719 113.914C96.0469 112.07 95.4844 109.82 95.4844 107.164V84.875H103.734V107.164C103.734 108.57 103.938 109.719 104.344 110.609C104.75 111.484 105.344 112.125 106.125 112.531C106.906 112.938 107.852 113.141 108.961 113.141C110.086 113.141 111.031 112.938 111.797 112.531C112.562 112.125 113.141 111.484 113.531 110.609C113.922 109.719 114.117 108.57 114.117 107.164V84.875ZM136.266 84.875V119H128.062V84.875H136.266ZM172.523 84.875H180.75V107.164C180.75 109.82 180.195 112.07 179.086 113.914C177.977 115.742 176.422 117.125 174.422 118.062C172.422 119 170.07 119.469 167.367 119.469C164.695 119.469 162.344 119 160.312 118.062C158.297 117.125 156.719 115.742 155.578 113.914C154.453 112.07 153.891 109.82 153.891 107.164V84.875H162.141V107.164C162.141 108.57 162.344 109.719 162.75 110.609C163.156 111.484 163.75 112.125 164.531 112.531C165.312 112.938 166.258 113.141 167.367 113.141C168.492 113.141 169.438 112.938 170.203 112.531C170.969 112.125 171.547 111.484 171.938 110.609C172.328 109.719 172.523 108.57 172.523 107.164V84.875ZM193.078 84.875L198.656 96.2188L204.234 84.875H213.609L204.094 101.797L213.867 119H204.398L198.656 107.445L192.914 119H183.422L193.219 101.797L183.68 84.875H193.078Z" fill="black"/>
<path d="M1134 0H1348C1356.28 0 1363 6.71573 1363 15V148C1363 156.284 1356.28 163 1348 163H1134V0Z" fill="#E87A00"/>
<path d="M1248.5 111.917C1244.51 111.917 1240.55 111.13 1236.86 109.601C1233.17 108.073 1229.82 105.832 1226.99 103.008C1221.29 97.3036 1218.08 89.567 1218.08 81.5C1218.08 73.433 1221.29 65.6964 1226.99 59.9922C1232.7 54.2879 1240.43 51.0833 1248.5 51.0833C1265.23 51.0833 1278.92 63.25 1278.92 78.4583C1278.92 83.2985 1276.99 87.9405 1273.57 91.363C1270.15 94.7856 1265.51 96.7083 1260.67 96.7083H1255.19C1254.28 96.7083 1253.67 97.3167 1253.67 98.2292C1253.67 98.5333 1253.97 98.8375 1253.97 99.1417C1255.19 100.662 1255.8 102.487 1255.8 104.312C1256.1 108.571 1252.76 111.917 1248.5 111.917ZM1248.5 57.1667C1242.05 57.1667 1235.86 59.7303 1231.29 64.2937C1226.73 68.8571 1224.17 75.0464 1224.17 81.5C1224.17 87.9536 1226.73 94.1429 1231.29 98.7063C1235.86 103.27 1242.05 105.833 1248.5 105.833C1249.41 105.833 1250.02 105.225 1250.02 104.312C1250.02 103.704 1249.72 103.4 1249.72 103.096C1248.5 101.575 1247.89 100.054 1247.89 98.2292C1247.89 93.9708 1251.24 90.625 1255.5 90.625H1260.67C1263.89 90.625 1266.99 89.3432 1269.27 87.0615C1271.55 84.7798 1272.83 81.6851 1272.83 78.4583C1272.83 66.5958 1261.88 57.1667 1248.5 57.1667ZM1231.77 75.4167C1234.2 75.4167 1236.33 77.5458 1236.33 79.9792C1236.33 82.4125 1234.2 84.5417 1231.77 84.5417C1229.34 84.5417 1227.21 82.4125 1227.21 79.9792C1227.21 77.5458 1229.34 75.4167 1231.77 75.4167ZM1240.9 63.25C1243.33 63.25 1245.46 65.3792 1245.46 67.8125C1245.46 70.2458 1243.33 72.375 1240.9 72.375C1238.46 72.375 1236.33 70.2458 1236.33 67.8125C1236.33 65.3792 1238.46 63.25 1240.9 63.25ZM1256.1 63.25C1258.54 63.25 1260.67 65.3792 1260.67 67.8125C1260.67 70.2458 1258.54 72.375 1256.1 72.375C1253.67 72.375 1251.54 70.2458 1251.54 67.8125C1251.54 65.3792 1253.67 63.25 1256.1 63.25ZM1265.23 75.4167C1267.66 75.4167 1269.79 77.5458 1269.79 79.9792C1269.79 82.4125 1267.66 84.5417 1265.23 84.5417C1262.8 84.5417 1260.67 82.4125 1260.67 79.9792C1260.67 77.5458 1262.8 75.4167 1265.23 75.4167Z" fill="white"/>
</svg>
